<svg viewBox="0 0 606 928" fill="none" xmlns="http://www.w3.org/2000/svg">
<g id="fignu2" clip-path="url(#clip0_270_153)">
<g id="Clip path group">
<mask id="mask0_270_153" style="mask-type:luminance" maskUnits="userSpaceOnUse" x="0" y="0" width="606" height="928">
<g id="clip0">
<path id="Vector" d="M606 0H0V928H606V0Z" fill="white"/>
</g>
</mask>
<g mask="url(#mask0_270_153)">
<g id="fignu2_2">
<path id="fignu2-line" d="M308 742V915" stroke="url(#paint0_linear_270_153)" stroke-width="3" stroke-linecap="round" stroke-dasharray="1 10"/>
<g id="fignu2-phone">
<g id="Rectangle 4.3" filter="url(#filter0_d_270_153)">
<path id="Vector_2" d="M470 182.821C470 182.368 470.368 182 470.821 182C472.181 182 473.284 183.103 473.284 184.463V252.608C473.284 253.968 472.181 255.071 470.821 255.071C470.368 255.071 470 254.703 470 254.25V182.821Z" fill="white"/>
</g>
<path id="Rectangle 1005" d="M142 132C142 130.343 143.343 129 145 129H145.105C145.657 129 146.105 129.448 146.105 130V153.452C146.105 154.004 145.657 154.452 145.105 154.452H145C143.343 154.452 142 153.108 142 151.452V132Z" fill="white"/>
<path id="Rectangle 4.1" d="M142 175.463C142 174.103 143.103 173 144.463 173H145.284C145.738 173 146.105 173.368 146.105 173.821V216.514C146.105 216.967 145.738 217.335 145.284 217.335H144.463C143.103 217.335 142 216.232 142 214.872V175.463Z" fill="white"/>
<path id="Rectangle 4.1_2" d="M142 235.463C142 234.103 143.103 233 144.463 233H145.284C145.738 233 146.105 233.368 146.105 233.821V276.514C146.105 276.967 145.738 277.335 145.284 277.335H144.463C143.103 277.335 142 276.232 142 274.872V235.463Z" fill="white"/>
<g id="Rectangle 1006" filter="url(#filter1_dddd_270_153)">
<path id="Vector_3" d="M424 43H192C165.49 43 144 64.4903 144 91V681C144 707.51 165.49 729 192 729H424C450.51 729 472 707.51 472 681V91C472 64.4903 450.51 43 424 43Z" fill="white"/>
</g>
<path id="Rectangle 1007" d="M323 61H291C289.895 61 289 61.8954 289 63C289 64.1046 289.895 65 291 65H323C324.105 65 325 64.1046 325 63C325 61.8954 324.105 61 323 61Z" fill="#C4C4C4"/>
<path id="Ellipse 176" d="M342 67C344.209 67 346 65.2091 346 63C346 60.7909 344.209 59 342 59C339.791 59 338 60.7909 338 63C338 65.2091 339.791 67 342 67Z" fill="#C4C4C4"/>
<path id="Subtract" fill-rule="evenodd" clip-rule="evenodd" d="M222 61C222 60.6643 222.01 60.3309 222.029 60H222C222 56.134 218.866 53 215 53H192C171.013 53 154 70.0132 154 91V682C154 702.987 171.013 720 192 720H424C444.987 720 462 702.987 462 682V91C462 70.0132 444.987 53 424 53H402C398.134 53 395 56.134 395 60H394.971C394.99 60.3309 395 60.6643 395 61C395 70.3888 387.389 78 378 78H239C229.611 78 222 70.3888 222 61Z" fill="url(#paint1_linear_270_153)"/>
</g>
<g id="fignu2-screen1" class="fignu2-screen1">
<path id="Union" fill-rule="evenodd" clip-rule="evenodd" d="M282.29 368.57C282.29 368.58 282.29 368.585 282.291 368.585C282.292 368.586 282.293 368.58 282.297 368.568C282.312 368.516 282.359 368.353 282.509 368.094C282.704 367.756 283.023 367.347 283.492 366.963C284.407 366.212 285.954 365.504 288.414 365.685C298.459 366.422 303.949 373.313 303.949 378.298V409.933C303.949 410.26 303.891 410.381 303.875 410.409C303.842 410.429 303.716 410.486 303.39 410.486H297.283C296.957 410.486 296.831 410.429 296.798 410.409C296.782 410.381 296.724 410.26 296.724 409.933V380.731C296.724 378.655 295.709 376.623 294.253 375.133C292.792 373.638 290.747 372.545 288.512 372.545H282.29V368.57ZM303.882 410.403C303.881 410.404 303.88 410.405 303.879 410.407C303.883 410.404 303.884 410.402 303.884 410.402C303.884 410.402 303.884 410.402 303.882 410.403ZM296.789 410.402C296.789 410.402 296.791 410.403 296.794 410.407C296.79 410.404 296.789 410.402 296.789 410.402ZM288.512 375.202H282.29V409.933C282.29 410.766 282.14 411.703 281.433 412.375C280.741 413.034 279.82 413.142 279.074 413.142H272.856C272.162 413.142 271.307 413.01 270.623 412.414C269.903 411.786 269.64 410.884 269.64 409.933V380.4C269.64 378.753 270.563 376.822 271.858 375.347C273.17 373.853 275.114 372.545 277.408 372.545H279.633V368.564C279.633 367.98 279.883 367.328 280.208 366.765C280.559 366.157 281.085 365.501 281.807 364.908C283.276 363.704 285.504 362.808 288.609 363.036C299.66 363.847 306.606 371.569 306.606 378.298V409.933C306.606 410.717 306.429 411.586 305.791 412.25C305.144 412.925 304.259 413.142 303.39 413.142H297.283C296.414 413.142 295.529 412.925 294.882 412.25C294.244 411.586 294.067 410.717 294.067 409.933V380.731C294.067 379.498 293.44 378.101 292.353 376.99C291.272 375.883 289.876 375.202 288.512 375.202ZM277.408 375.202H279.633V409.933C279.633 410.201 279.608 410.357 279.585 410.44C279.498 410.463 279.34 410.486 279.074 410.486H272.856C272.519 410.486 272.396 410.427 272.372 410.413C272.349 410.374 272.297 410.247 272.297 409.933V380.4C272.297 379.613 272.818 378.281 273.854 377.1C274.873 375.94 276.149 375.202 277.408 375.202ZM272.382 410.427C272.382 410.427 272.379 410.424 272.374 410.416C272.38 410.422 272.383 410.426 272.382 410.427ZM336.13 417.013C336.13 417.003 336.13 416.998 336.129 416.998C336.128 416.997 336.126 417.003 336.123 417.015C336.108 417.067 336.06 417.23 335.911 417.489C335.716 417.827 335.397 418.236 334.928 418.62C334.013 419.371 332.466 420.079 330.005 419.898C319.961 419.161 314.47 412.27 314.47 407.285V375.65C314.47 375.323 314.528 375.202 314.545 375.174C314.577 375.154 314.703 375.097 315.03 375.097H321.136C321.463 375.097 321.589 375.154 321.621 375.174C321.638 375.202 321.695 375.323 321.695 375.65V404.852C321.695 406.928 322.71 408.96 324.166 410.45C325.627 411.945 327.673 413.038 329.908 413.038H336.13V417.013ZM321.629 375.18C321.63 375.181 321.631 375.181 321.631 375.181C321.631 375.181 321.63 375.18 321.629 375.179C321.628 375.179 321.627 375.178 321.625 375.177C321.627 375.178 321.629 375.18 321.629 375.18ZM329.908 410.382H336.13V375.65C336.13 374.817 336.279 373.88 336.987 373.208C337.679 372.549 338.599 372.441 339.345 372.441H345.563C346.258 372.441 347.113 372.573 347.796 373.169C348.516 373.797 348.779 374.699 348.779 375.65V405.183C348.779 406.83 347.857 408.761 346.562 410.236C345.249 411.73 343.305 413.038 341.012 413.038H338.786V417.019C338.786 417.603 338.536 418.255 338.211 418.818C337.86 419.426 337.335 420.082 336.612 420.675C335.144 421.879 332.915 422.775 329.811 422.547C318.759 421.736 311.814 414.014 311.814 407.285V375.65C311.814 374.866 311.99 373.997 312.628 373.333C313.276 372.658 314.16 372.441 315.03 372.441H321.136C322.005 372.441 322.89 372.658 323.538 373.333C324.176 373.997 324.352 374.866 324.352 375.65V404.852C324.352 406.085 324.98 407.482 326.066 408.593C327.148 409.7 328.544 410.382 329.908 410.382ZM341.012 410.382H338.786V375.65C338.786 375.382 338.812 375.226 338.834 375.143C338.921 375.12 339.079 375.097 339.345 375.097H345.563C345.901 375.097 346.023 375.156 346.048 375.17C346.07 375.209 346.122 375.336 346.122 375.65V405.183C346.122 405.97 345.602 407.302 344.565 408.483C343.547 409.643 342.271 410.382 341.012 410.382ZM346.039 375.158C346.038 375.157 346.037 375.156 346.037 375.156C346.037 375.157 346.039 375.161 346.046 375.167C346.043 375.162 346.04 375.159 346.039 375.158Z" fill="#EDEAEF"/>
<path id="Rectangle 426" d="M355.194 708.381H261.467C260.104 708.381 259 709.485 259 710.848C259 712.21 260.104 713.314 261.467 713.314H355.194C356.557 713.314 357.661 712.21 357.661 710.848C357.661 709.485 356.557 708.381 355.194 708.381Z" fill="#EDEAEF"/>
</g>
<g id="fignu2-screen2" class="fignu2-screen2">
<text id="Me ajuda" fill="#FBF9FC" xml:space="preserve" style="white-space: pre" font-family="Source Sans Pro" font-size="8.87422" letter-spacing="0em"><tspan x="216.329" y="370.673">Me ajuda</tspan></text>
<text id="Ativar a fun&#195;&#131;&#194;&#167;&#195;&#131;&#194;&#163;o d&#195;&#131;&#194;&#169;bito" fill="#FBF9FC" xml:space="preserve" style="white-space: pre" font-family="Source Sans Pro" font-size="8.87422" letter-spacing="0em"><tspan x="216.329" y="410.114">Ativar a fun&#xe7;&#xe3;o d&#xe9;bito</tspan></text>
<text id="Perfil" fill="#FBF9FC" xml:space="preserve" style="white-space: pre" font-family="Source Sans Pro" font-size="8.87422" letter-spacing="0em"><tspan x="216.329" y="449.555">Perfil</tspan></text>
<text id="Configurar NuConta" fill="#FBF9FC" xml:space="preserve" style="white-space: pre" font-family="Source Sans Pro" font-size="8.87422" letter-spacing="0em"><tspan x="216.329" y="488.996">Configurar NuConta</tspan></text>
<text id="Configurar cart&#195;&#131;&#194;&#163;o" fill="#FBF9FC" xml:space="preserve" style="white-space: pre" font-family="Source Sans Pro" font-size="8.87422" letter-spacing="0em"><tspan x="216.329" y="528.437">Configurar cart&#xe3;o</tspan></text>
<text id="sair do app" fill="#FBF9FC" xml:space="preserve" style="white-space: pre" font-family="Source Sans Pro" font-size="8.87422" font-weight="bold" letter-spacing="0em"><tspan x="280.421" y="621.124">SAIR DO APP</tspan></text>
<g id="Group 322">
<text id="Banco" fill="#FBF9FC" xml:space="preserve" style="white-space: pre" font-family="Source Sans Pro" font-size="11.8323" letter-spacing="0em"><tspan x="216.581" y="296.422">Banco</tspan></text>
<text id="260 - Nu Pagamentos S.A." fill="#FBF9FC" xml:space="preserve" style="white-space: pre" font-family="Source Sans Pro" font-size="11.8323" font-weight="bold" letter-spacing="0em"><tspan x="252.571" y="296.422">260 - Nu Pagamentos S.A.</tspan></text>
</g>
<g id="Group 323">
<text id="0001" fill="#FBF9FC" xml:space="preserve" style="white-space: pre" font-family="Source Sans Pro" font-size="11.8323" font-weight="bold" letter-spacing="0em"><tspan x="309.058" y="313.184">0001</tspan></text>
<text id="Ag&#195;&#131;&#194;&#170;ncia" fill="#FBF9FC" xml:space="preserve" style="white-space: pre" font-family="Source Sans Pro" font-size="11.8323" letter-spacing="0em"><tspan x="266.658" y="313.184">Ag&#xea;ncia</tspan></text>
</g>
<g id="Group 324">
<text id="77712444-0" fill="#FBF9FC" xml:space="preserve" style="white-space: pre" font-family="Source Sans Pro" font-size="11.8323" font-weight="bold" letter-spacing="0em"><tspan x="285.645" y="329.947">77712444-0</tspan></text>
<text id="Conta" fill="#FBF9FC" xml:space="preserve" style="white-space: pre" font-family="Source Sans Pro" font-size="11.8323" letter-spacing="0em"><tspan x="252.12" y="329.947">Conta</tspan></text>
</g>
<path id="Vector_4" d="M432.515 374.627L438.416 368.71L432.515 362.792" stroke="#FBF9FC" stroke-width="0.986024" stroke-linecap="round" stroke-linejoin="round"/>
<path id="Vector_2_2" d="M432.515 533.413L438.416 527.495L432.515 521.578" stroke="#FBF9FC" stroke-width="0.986024" stroke-linecap="round" stroke-linejoin="round"/>
<path id="Vector_3_2" d="M432.515 493.963L438.416 488.046L432.515 482.128" stroke="#FBF9FC" stroke-width="0.986024" stroke-linecap="round" stroke-linejoin="round"/>
<path id="Vector_4_2" d="M432.515 453.527L438.416 447.61L432.515 441.692" stroke="#FBF9FC" stroke-width="0.986024" stroke-linecap="round" stroke-linejoin="round"/>
<path id="Vector_5" d="M432.515 414.077L438.416 408.16L432.515 402.242" stroke="#FBF9FC" stroke-width="0.986024" stroke-linecap="round" stroke-linejoin="round"/>
<g id="Group 325">
<path id="Vector_6" d="M198.465 455.499V453.527C198.465 452.481 198.051 451.477 197.313 450.737C196.575 449.998 195.575 449.582 194.532 449.582H186.664C185.621 449.582 184.621 449.998 183.883 450.737C183.145 451.477 182.731 452.481 182.731 453.527V455.499" stroke="#FBF9FC" stroke-width="0.986024" stroke-linecap="round" stroke-linejoin="round"/>
<path id="Vector_7" d="M190.598 445.637C192.77 445.637 194.532 443.871 194.532 441.692C194.532 439.513 192.77 437.747 190.598 437.747C188.425 437.747 186.664 439.513 186.664 441.692C186.664 443.871 188.425 445.637 190.598 445.637Z" stroke="#FBF9FC" stroke-width="0.986024" stroke-linecap="round" stroke-linejoin="round"/>
</g>
<g id="Group 326">
<path id="Vector_8" d="M190.599 475.225V496.922" stroke="#FBF9FC" stroke-width="0.986024" stroke-linecap="round" stroke-linejoin="round"/>
<path id="Vector_9" d="M195.515 479.17H188.14C187.227 479.17 186.352 479.533 185.706 480.181C185.061 480.828 184.698 481.706 184.698 482.621C184.698 483.537 185.061 484.415 185.706 485.062C186.352 485.71 187.227 486.073 188.14 486.073H193.057C193.97 486.073 194.845 486.437 195.491 487.084C196.136 487.732 196.499 488.61 196.499 489.525C196.499 490.441 196.136 491.319 195.491 491.966C194.845 492.613 193.97 492.977 193.057 492.977H184.698" stroke="#FBF9FC" stroke-width="0.986024" stroke-linecap="round" stroke-linejoin="round"/>
</g>
<g id="Group 327">
<path id="Vector_10" d="M199.449 518.619H181.747C180.661 518.619 179.781 519.502 179.781 520.592V532.427C179.781 533.516 180.661 534.399 181.747 534.399H199.449C200.535 534.399 201.415 533.516 201.415 532.427V520.592C201.415 519.502 200.535 518.619 199.449 518.619Z" stroke="#FBF9FC" stroke-width="0.986024" stroke-linecap="round" stroke-linejoin="round"/>
<path id="Vector_11" d="M179.781 524.537H201.415" stroke="#FBF9FC" stroke-width="0.986024" stroke-linecap="round" stroke-linejoin="round"/>
</g>
<g id="Group 328">
<path id="Vector_12" d="M199.449 400.27H181.747C180.661 400.27 179.781 401.153 179.781 402.242V414.077C179.781 415.167 180.661 416.05 181.747 416.05H199.449C200.535 416.05 201.415 415.167 201.415 414.077V402.242C201.415 401.153 200.535 400.27 199.449 400.27Z" stroke="#FBF9FC" stroke-width="0.986024" stroke-linecap="round" stroke-linejoin="round"/>
<path id="Vector_13" d="M179.781 406.187H201.415" stroke="#FBF9FC" stroke-width="0.986024" stroke-linecap="round" stroke-linejoin="round"/>
</g>
<g id="Group 329">
<path id="Vector_14" d="M190.598 376.6C196.029 376.6 200.432 372.184 200.432 366.737C200.432 361.291 196.029 356.875 190.598 356.875C185.167 356.875 180.764 361.291 180.764 366.737C180.764 372.184 185.167 376.6 190.598 376.6Z" stroke="#FBF9FC" stroke-width="0.986024" stroke-linecap="round" stroke-linejoin="round"/>
<path id="Vector_15" d="M187.736 363.779C187.968 363.12 188.424 362.564 189.025 362.21C189.625 361.856 190.331 361.726 191.018 361.844C191.705 361.963 192.328 362.321 192.776 362.855C193.225 363.39 193.471 364.066 193.47 364.765C193.47 366.737 190.519 367.724 190.519 367.724" stroke="#FBF9FC" stroke-width="0.986024" stroke-linecap="round" stroke-linejoin="round"/>
<path id="Vector_16" d="M190.598 371.669H190.608" stroke="#FBF9FC" stroke-width="0.986024" stroke-linecap="round" stroke-linejoin="round"/>
</g>
<path id="Vector 34" d="M169.986 348.919H440.157" stroke="#BB71D2" stroke-width="0.807701"/>
<path id="Vector 35" d="M169.986 546.124H441.143" stroke="#BB71D2" stroke-width="0.807701"/>
<text id="Configurar App" fill="#FBF9FC" xml:space="preserve" style="white-space: pre" font-family="Source Sans Pro" font-size="8.87422" letter-spacing="0em"><tspan x="216.329" y="567.878">Configurar App</tspan></text>
<path id="Vector_17" d="M432.515 572.863L438.416 566.945L432.515 561.028" stroke="#FBF9FC" stroke-width="0.986024" stroke-linecap="round" stroke-linejoin="round"/>
<path id="Vector 36" d="M169.986 585.565H441.143" stroke="#BB71D2" stroke-width="0.807701"/>
<path id="Vector 37" d="M169.986 506.683H441.143" stroke="#BB71D2" stroke-width="0.807701"/>
<path id="Vector 38" d="M169.986 467.242H441.143" stroke="#BB71D2" stroke-width="0.807701"/>
<path id="Vector 39" d="M169.986 427.801H441.143" stroke="#BB71D2" stroke-width="0.807701"/>
<path id="Vector 40" d="M169 388.36H440.157" stroke="#BB71D2" stroke-width="0.807701"/>
<path id="Rectangle 351" d="M437.199 599.773H171.958C170.548 599.773 169.404 600.916 169.404 602.327V635.852C169.404 637.263 170.548 638.406 171.958 638.406H437.199C438.609 638.406 439.753 637.263 439.753 635.852V602.327C439.753 600.916 438.609 599.773 437.199 599.773Z" stroke="#BB71D2" stroke-width="0.807701"/>
<path id="Vector_18" d="M312.697 157.653L306.797 151.736L300.896 157.653" stroke="#FBF9FC" stroke-width="0.986024" stroke-linecap="round" stroke-linejoin="round"/>
<g id="Group 330">
<path id="Rectangle 396" d="M352.704 178.337H261.004V270.037H352.704V178.337Z" fill="white"/>
<path id="Union_2" fill-rule="evenodd" clip-rule="evenodd" d="M317.963 184.898H345.995V190.713H317.963V184.898ZM307.078 196.081V190.713H312.446V184.898H301.263V190.265V190.713V196.081V201.896H306.631V207.562H300.965V218.745H306.78V213.079H312.446V201.896V196.081H307.078ZM334.961 196.23H329.146V202.045H334.961V196.23ZM267.565 218.447H273.38V224.262H267.565V218.447ZM273.38 224.262H278.748V218.745H289.931V224.113H306.78V218.447H312.595V224.262H306.78V229.928V235.445H300.965V229.928H284.414V224.56H279.196V230.077H273.38V224.262ZM329.146 224.56V230.077H323.331V224.56H317.963V218.745H329.146V224.56ZM340.329 235.445V240.812H346.144V246.628H340.329V241.26H334.961V246.329H340.329V252.144H334.514H329.146V241.26H317.963V235.445H334.514V224.262H340.329V229.928V235.445ZM340.329 229.928V218.745H346.144V229.928H340.329ZM329.146 252.144V257.661V263.476H306.78V257.661H323.331V252.294H317.963V246.478H323.778V252.144H329.146ZM346.144 257.96V252.144H340.329V257.96H346.144ZM334.514 257.81H340.329V263.626H334.514V257.81ZM312.595 240.812H317.963V246.628H312.595V252.443H306.78V246.628H312.148V241.26H306.78V235.445H312.148V229.629H317.963V235.445H312.595V240.812ZM306.78 251.995V257.661H300.965V251.995V251.846V240.812H306.78V251.846V251.995ZM278.748 246.478H284.563V252.294H278.748V246.478ZM284.563 196.23H278.748V202.045H284.563V196.23ZM289.782 207.562H273.38V190.713H289.782V207.562ZM267.565 207.562V213.377H295.597V208.009V190.713H295.598V184.898H267.566V190.713H267.565V207.562ZM267.565 235.445H295.597V241.26V257.512H289.782V241.26H273.38V257.512H267.565V241.26V235.445ZM295.597 257.512H267.565V263.327H295.597V257.512ZM340.18 207.562H323.778V190.713H317.963V207.562V213.377H345.995V207.562V190.713H340.18V207.562Z" fill="#82269E"/>
</g>
<path id="Rectangle 352" d="M430.07 655H179.93C177.207 655 175 657.207 175 659.93V716.07C175 718.793 177.207 721 179.93 721H430.07C432.793 721 435 718.793 435 716.07V659.93C435 657.207 432.793 655 430.07 655Z" fill="#FBF9FC"/>
<text id="NuConta" fill="#3C3B3D" xml:space="preserve" style="white-space: pre" font-family="Source Sans Pro" font-size="11.8323" letter-spacing="0em"><tspan x="227.889" y="682.178">NuConta</tspan></text>
<g id="Group 331">
<path id="Vector_19" d="M394.162 681.35C394.162 681.35 398.096 673.46 404.98 673.46C411.864 673.46 415.797 681.35 415.797 681.35C415.797 681.35 411.864 689.24 404.98 689.24C398.096 689.24 394.162 681.35 394.162 681.35Z" stroke="#3C3B3D" stroke-width="0.986024" stroke-linecap="round" stroke-linejoin="round"/>
<path id="Vector_20" d="M404.98 684.308C406.609 684.308 407.93 682.984 407.93 681.35C407.93 679.716 406.609 678.391 404.98 678.391C403.35 678.391 402.029 679.716 402.029 681.35C402.029 682.984 403.35 684.308 404.98 684.308Z" stroke="#3C3B3D" stroke-width="0.986024" stroke-linecap="round" stroke-linejoin="round"/>
</g>
<path id="Vector_21" d="M197.482 688.253C202.913 688.253 207.316 683.838 207.316 678.391C207.316 672.944 202.913 668.528 197.482 668.528C192.051 668.528 187.648 672.944 187.648 678.391C187.648 683.838 192.051 688.253 197.482 688.253Z" stroke="#3C3B3D" stroke-width="0.986024" stroke-linecap="round" stroke-linejoin="round"/>
<g id="Group 332">
<path id="Vector_22" d="M197.482 672.473V683.322" stroke="#3C3B3D" stroke-width="0.986024" stroke-linecap="round" stroke-linejoin="round"/>
<path id="Vector_23" d="M199.94 674.446H196.253C195.796 674.446 195.359 674.628 195.036 674.951C194.713 675.275 194.532 675.714 194.532 676.172C194.532 676.63 194.713 677.069 195.036 677.392C195.359 677.716 195.796 677.898 196.253 677.898H198.711C199.168 677.898 199.605 678.08 199.928 678.403C200.251 678.727 200.432 679.166 200.432 679.624C200.432 680.081 200.251 680.52 199.928 680.844C199.605 681.168 199.168 681.35 198.711 681.35H194.532" stroke="#3C3B3D" stroke-width="0.986024" stroke-linecap="round" stroke-linejoin="round"/>
</g>
<g id="Group 333">
<path id="Vector_24" d="M195.515 556.097H185.681C184.595 556.097 183.714 556.98 183.714 558.069V573.849C183.714 574.938 184.595 575.821 185.681 575.821H195.515C196.601 575.821 197.482 574.938 197.482 573.849V558.069C197.482 556.98 196.601 556.097 195.515 556.097Z" stroke="#FBF9FC" stroke-width="0.986024" stroke-linecap="round" stroke-linejoin="round"/>
<path id="Vector_25" d="M190.598 571.876H190.608" stroke="#FBF9FC" stroke-width="0.986024" stroke-linecap="round" stroke-linejoin="round"/>
</g>
<g id="Group 334">
<g id="Group 32">
<path id="Rectangle 421" d="M400.329 71.0723H399.73C399.186 71.0723 398.744 71.5137 398.744 72.0583V73.3919C398.744 73.9365 399.186 74.3779 399.73 74.3779H400.329C400.874 74.3779 401.315 73.9365 401.315 73.3919V72.0583C401.315 71.5137 400.874 71.0723 400.329 71.0723Z" fill="white"/>
<path id="Rectangle 422" d="M404.002 69.6033H403.403C402.859 69.6033 402.417 70.0447 402.417 70.5893V73.3921C402.417 73.9367 402.859 74.3781 403.403 74.3781H404.002C404.547 74.3781 404.988 73.9367 404.988 73.3921V70.5893C404.988 70.0447 404.547 69.6033 404.002 69.6033Z" fill="white"/>
<path id="Rectangle 423" d="M407.675 67.7668H407.076C406.532 67.7668 406.09 68.2083 406.09 68.7529V73.3922C406.09 73.9367 406.532 74.3782 407.076 74.3782H407.675C408.22 74.3782 408.661 73.9367 408.661 73.3922V68.7529C408.661 68.2083 408.22 67.7668 407.675 67.7668Z" fill="white"/>
<path id="Rectangle 424" d="M411.348 65.9302H410.749C410.205 65.9302 409.763 66.3716 409.763 66.9162V73.392C409.763 73.9365 410.205 74.378 410.749 74.378H411.348C411.893 74.378 412.334 73.9365 412.334 73.392V66.9162C412.334 66.3716 411.893 65.9302 411.348 65.9302Z" fill="white"/>
</g>
<g id="Group 34">
<path id="Vector 36_2" d="M448.045 72.2801V69.4404C448.834 69.9137 448.992 70.387 448.992 70.8602C448.992 71.3335 448.834 71.8068 448.045 72.2801Z" fill="white" fill-opacity="0.5"/>
<path id="Rectangle 413" d="M445.521 67.2317H434.162C433.29 67.2317 432.584 67.938 432.584 68.8093V72.9112C432.584 73.7825 433.29 74.4888 434.162 74.4888H445.521C446.392 74.4888 447.098 73.7825 447.098 72.9112V68.8093C447.098 67.938 446.392 67.2317 445.521 67.2317Z" stroke="white" stroke-opacity="0.5" stroke-width="0.631056"/>
<path id="Rectangle 414" d="M445.206 68.1782H434.478C433.955 68.1782 433.531 68.602 433.531 69.1248V72.5956C433.531 73.1184 433.955 73.5422 434.478 73.5422H445.206C445.728 73.5422 446.152 73.1184 446.152 72.5956V69.1248C446.152 68.602 445.728 68.1782 445.206 68.1782Z" fill="#FBF9FC"/>
</g>
<g id="Group 33">
<path id="Subtract_2" fill-rule="evenodd" clip-rule="evenodd" d="M426.407 69.6135L427.591 68.43C426.236 66.8969 424.255 65.9302 422.048 65.9302C419.834 65.9302 417.848 66.9028 416.492 68.444L417.674 69.6259C418.82 68.5567 420.357 67.9023 422.048 67.9023C423.731 67.9023 425.264 68.5516 426.407 69.6135Z" fill="white"/>
<path id="Subtract_3" fill-rule="evenodd" clip-rule="evenodd" d="M426.717 72.5244C426.717 72.5246 426.717 72.5241 426.717 72.5244ZM419.7 71.9246L418.656 70.7862C419.597 69.8598 420.906 69.3117 422.329 69.3734C423.628 69.4296 424.787 69.9834 425.632 70.8428L424.477 71.9016C423.881 71.3812 423.11 71.0522 422.258 71.0152C421.281 70.9729 420.378 71.3224 419.7 71.9246Z" fill="white"/>
<path id="Vector 37_2" d="M422.048 74.3115L420.569 72.8325C421.04 72.3849 421.39 72.175 422.048 72.175C422.705 72.175 423.052 72.3431 423.527 72.8325L422.048 74.3115Z" fill="white"/>
</g>
<text id="22:31" fill="white" xml:space="preserve" style="white-space: pre" font-family="Source Sans Pro" font-size="12.8183" font-weight="bold" letter-spacing="0em"><tspan x="177.874" y="74.4302">22:31</tspan></text>
</g>
<g id="Group 335">
<text id="Nasser Yousef Ali" fill="#FBF9FC" xml:space="preserve" style="white-space: pre" font-family="Sora" font-size="14.5386" font-weight="bold" letter-spacing="0em"><tspan x="262.62" y="128.247">Nasser Yousef Ali</tspan></text>
<path id="Union_3" fill-rule="evenodd" clip-rule="evenodd" d="M225.442 114.692V113.196C225.442 113.196 225.443 113.193 225.443 113.191C225.449 113.174 225.466 113.123 225.514 113.039C225.588 112.912 225.71 112.754 225.894 112.603C226.249 112.312 226.862 112.025 227.863 112.098C232.041 112.405 234.273 115.262 234.273 117.266V130.6C234.273 130.633 234.271 130.66 234.269 130.68C234.249 130.682 234.221 130.684 234.187 130.684H231.613C231.578 130.684 231.55 130.682 231.53 130.68C231.528 130.66 231.526 130.633 231.526 130.6V118.291C231.526 117.369 231.076 116.477 230.442 115.827C229.805 115.175 228.906 114.692 227.915 114.692H225.442ZM227.915 116.11H225.442V130.6C225.442 130.964 225.378 131.411 225.034 131.738C224.699 132.056 224.261 132.102 223.937 132.102H221.316C221.008 132.102 220.605 132.044 220.277 131.758C219.93 131.456 219.812 131.027 219.812 130.6V118.152C219.812 117.409 220.223 116.562 220.783 115.924C221.353 115.275 222.21 114.692 223.235 114.692H224.024V113.163C224.024 112.879 224.143 112.577 224.286 112.33C224.443 112.059 224.676 111.768 224.995 111.507C225.645 110.973 226.622 110.585 227.967 110.684C232.682 111.03 235.691 114.332 235.691 117.266V130.6C235.691 130.95 235.613 131.361 235.306 131.68C234.995 132.004 234.576 132.102 234.187 132.102H231.613C231.223 132.102 230.804 132.004 230.493 131.68C230.186 131.361 230.108 130.95 230.108 130.6V118.291C230.108 117.819 229.865 117.266 229.428 116.818C228.993 116.374 228.441 116.11 227.915 116.11ZM223.235 116.11H224.024V130.6C224.024 130.632 224.023 130.659 224.021 130.682C223.998 130.683 223.97 130.684 223.937 130.684H221.316C221.282 130.684 221.255 130.682 221.234 130.68C221.232 130.66 221.23 130.634 221.23 130.6V118.152C221.23 117.868 221.427 117.34 221.849 116.859C222.262 116.389 222.762 116.11 223.235 116.11ZM247.837 132.058V133.554C247.837 133.554 247.837 133.556 247.836 133.558C247.83 133.575 247.814 133.627 247.765 133.71C247.692 133.837 247.569 133.996 247.385 134.146C247.031 134.437 246.417 134.725 245.416 134.652C241.239 134.345 239.006 131.487 239.006 129.484V116.149C239.006 116.116 239.008 116.09 239.01 116.07C239.031 116.068 239.058 116.066 239.093 116.066H241.667C241.702 116.066 241.729 116.068 241.749 116.07C241.752 116.09 241.753 116.116 241.753 116.149V128.458C241.753 129.381 242.203 130.273 242.837 130.922C243.474 131.574 244.373 132.058 245.364 132.058H247.837ZM245.364 130.64H247.837V116.149C247.837 115.786 247.902 115.338 248.245 115.012C248.58 114.693 249.019 114.648 249.342 114.648H251.963C252.271 114.648 252.675 114.706 253.002 114.991C253.349 115.294 253.468 115.722 253.468 116.149V128.598C253.468 129.34 253.056 130.188 252.496 130.826C251.926 131.475 251.069 132.058 250.044 132.058H249.256V133.587C249.256 133.871 249.136 134.172 248.993 134.42C248.836 134.691 248.603 134.982 248.285 135.243C247.635 135.776 246.657 136.165 245.312 136.066C240.597 135.72 237.588 132.418 237.588 129.484V116.149C237.588 115.799 237.667 115.389 237.973 115.07C238.284 114.745 238.704 114.648 239.093 114.648H241.667C242.056 114.648 242.475 114.745 242.787 115.07C243.093 115.389 243.172 115.799 243.172 116.149V128.458C243.172 128.931 243.414 129.484 243.852 129.931C244.286 130.376 244.838 130.64 245.364 130.64ZM250.044 130.64H249.256V116.149C249.256 116.118 249.256 116.091 249.258 116.068C249.282 116.067 249.31 116.066 249.342 116.066H251.963C251.997 116.066 252.025 116.067 252.046 116.07C252.048 116.09 252.05 116.116 252.05 116.149V128.598C252.05 128.881 251.853 129.409 251.43 129.89C251.017 130.361 250.517 130.64 250.044 130.64Z" fill="white"/>
</g>
</g>
<g id="fignu2-screen3" class="fignu2-screen3">
<path id="Vector_26" d="M302.543 151.735L308.444 157.652L314.344 151.735" stroke="#FBF9FC" stroke-width="0.986245" stroke-linecap="round" stroke-linejoin="round"/>
<path id="Rectangle 426_2" d="M433.149 243.455H182.642C179.919 243.455 177.711 245.663 177.711 248.386V498.893C177.711 501.616 179.919 503.824 182.642 503.824H433.149C435.872 503.824 438.08 501.616 438.08 498.893V248.386C438.08 245.663 435.872 243.455 433.149 243.455Z" fill="#FBF8FC"/>
<path id="Rectangle 427" d="M433.149 444.649H182.642C179.919 444.649 177.711 446.857 177.711 449.58V498.892C177.711 501.616 179.919 503.824 182.642 503.824H433.149C435.872 503.824 438.08 501.616 438.08 498.892V449.58C438.08 446.857 435.872 444.649 433.149 444.649Z" fill="#EDEAEF"/>
<text id="Saldo dispon&#195;&#131;&#194;&#173;vel" fill="#3C3B3D" xml:space="preserve" style="white-space: pre" font-family="Source Sans Pro" font-size="11.8349" letter-spacing="0em"><tspan x="190.923" y="347.126">Saldo dispon&#xed;vel</tspan></text>
<g id="Transfer&#195;&#131;&#194;&#170;ncia de R$ 500,00 feita para Juliana ontem">
<text id="Transfer&#195;&#170;ncia de R$ 500,00 feita para Juliana" fill="#3C3B3D" xml:space="preserve" style="white-space: pre" font-family="Source Sans Pro" font-size="8.87621" letter-spacing="0em"><tspan x="233.731" y="471.906">Transfer&#xea;ncia de R$ 500,00 feita para Juliana </tspan></text>
<text id="ontem" fill="#3C3B3D" xml:space="preserve" style="white-space: pre" font-family="Source Sans Pro" font-size="8.87621" letter-spacing="0em"><tspan x="233.731" y="483.906">ontem</tspan></text>
</g>
<text id="NuConta_2" fill="#3C3B3D" xml:space="preserve" style="white-space: pre" font-family="Source Sans Pro" font-size="11.8349" letter-spacing="0em"><tspan x="231.308" y="271.202">NuConta</tspan></text>
<text id="R$ 2.150,59" fill="#3C3B3D" xml:space="preserve" style="white-space: pre" font-family="Sora" font-size="23.6699" font-weight="bold" letter-spacing="0em"><tspan x="190.923" y="378.665">R$ 2.150,59</tspan></text>
<g id="Group 333_2">
<path id="Vector_27" d="M396.95 270.084C396.95 270.084 400.883 262.194 407.767 262.194C414.651 262.194 418.585 270.084 418.585 270.084C418.585 270.084 414.651 277.974 407.767 277.974C400.883 277.974 396.95 270.084 396.95 270.084Z" stroke="#3C3B3D" stroke-width="0.986245" stroke-linecap="round" stroke-linejoin="round"/>
<path id="Vector_28" d="M407.767 273.043C409.397 273.043 410.718 271.718 410.718 270.084C410.718 268.45 409.397 267.125 407.767 267.125C406.138 267.125 404.817 268.45 404.817 270.084C404.817 271.718 406.138 273.043 407.767 273.043Z" stroke="#3C3B3D" stroke-width="0.986245" stroke-linecap="round" stroke-linejoin="round"/>
</g>
<g id="Group 334_2">
<g id="Group 13">
<path id="Vector_29" d="M200.27 261.208V272.056" stroke="#3C3B3D" stroke-width="0.986245" stroke-linecap="round" stroke-linejoin="round"/>
<path id="Vector_30" d="M202.728 263.18H199.041C198.584 263.18 198.146 263.362 197.824 263.686C197.501 264.009 197.32 264.448 197.32 264.906C197.32 265.364 197.501 265.803 197.824 266.127C198.146 266.45 198.584 266.632 199.041 266.632H201.499C201.955 266.632 202.393 266.814 202.716 267.138C203.039 267.461 203.22 267.9 203.22 268.358C203.22 268.816 203.039 269.255 202.716 269.578C202.393 269.902 201.955 270.084 201.499 270.084H197.32" stroke="#3C3B3D" stroke-width="0.986245" stroke-linecap="round" stroke-linejoin="round"/>
</g>
<path id="Vector_31" d="M200.269 276.988C205.701 276.988 210.103 272.572 210.103 267.125C210.103 261.678 205.701 257.263 200.269 257.263C194.838 257.263 190.435 261.678 190.435 267.125C190.435 272.572 194.838 276.988 200.269 276.988Z" stroke="#3C3B3D" stroke-width="0.986245" stroke-linecap="round" stroke-linejoin="round"/>
</g>
<g id="Group 335_2">
<g id="Group 14">
<path id="Vector_32" d="M207.153 470.292V481.14" stroke="#3C3B3D" stroke-width="0.986245" stroke-linecap="round" stroke-linejoin="round"/>
<path id="Vector_33" d="M209.612 472.264H205.924C205.468 472.264 205.03 472.446 204.707 472.77C204.385 473.093 204.203 473.532 204.203 473.99C204.203 474.448 204.385 474.887 204.707 475.211C205.03 475.534 205.468 475.716 205.924 475.716H208.383C208.839 475.716 209.277 475.898 209.6 476.222C209.922 476.545 210.104 476.984 210.104 477.442C210.104 477.9 209.922 478.339 209.6 478.662C209.277 478.986 208.839 479.168 208.383 479.168H204.203" stroke="#3C3B3D" stroke-width="0.986245" stroke-linecap="round" stroke-linejoin="round"/>
</g>
<path id="Vector_34" d="M207.153 466.347C201.722 466.347 197.319 470.762 197.319 476.209C197.319 481.656 201.722 486.072 207.153 486.072C212.585 486.072 216.987 481.656 216.987 476.209C216.987 474.995 216.769 473.832 216.368 472.757" stroke="#3C3B3D" stroke-width="0.986245" stroke-linecap="round" stroke-linejoin="round"/>
<g id="Group 15">
<path id="Vector_35" d="M217.971 467.333L214.037 463.388L210.104 467.333" stroke="#3C3B3D" stroke-width="0.986245" stroke-linecap="round" stroke-linejoin="round"/>
<path id="Vector_36" d="M214.037 471.278V463.388" stroke="#3C3B3D" stroke-width="0.986245" stroke-linecap="round" stroke-linejoin="round"/>
</g>
</g>
<path id="Vector_37" d="M415.635 481.141L421.535 475.223L415.635 469.306" stroke="#3C3B3D" stroke-width="0.986245" stroke-linecap="round" stroke-linejoin="round"/>
<path id="Ellipse 16" d="M293.102 523.549C294.736 523.549 296.061 522.224 296.061 520.59C296.061 518.956 294.736 517.631 293.102 517.631C291.468 517.631 290.143 518.956 290.143 520.59C290.143 522.224 291.468 523.549 293.102 523.549Z" fill="#FBF8FC"/>
<path id="Ellipse 17" d="M308.881 523.549C310.515 523.549 311.84 522.224 311.84 520.59C311.84 518.956 310.515 517.631 308.881 517.631C307.247 517.631 305.922 518.956 305.922 520.59C305.922 522.224 307.247 523.549 308.881 523.549Z" fill="#BB71D2"/>
<path id="Ellipse 18" d="M324.661 523.549C326.295 523.549 327.62 522.224 327.62 520.59C327.62 518.956 326.295 517.631 324.661 517.631C323.027 517.631 321.702 518.956 321.702 520.59C321.702 522.224 323.027 523.549 324.661 523.549Z" fill="#BB71D2"/>
<path id="Rectangle 428" d="M354.929 699.101H261.236C259.874 699.101 258.77 700.205 258.77 701.567V701.567C258.77 702.928 259.874 704.032 261.236 704.032H354.929C356.291 704.032 357.395 702.928 357.395 701.567V701.567C357.395 700.205 356.291 699.101 354.929 699.101Z" fill="#EDEAEF"/>
<g id="Group 336">
<g id="Group 32_2">
<path id="Rectangle 421_2" d="M400.215 71.0745H399.616C399.071 71.0745 398.63 71.516 398.63 72.0607V73.3946C398.63 73.9393 399.071 74.3809 399.616 74.3809H400.215C400.76 74.3809 401.202 73.9393 401.202 73.3946V72.0607C401.202 71.516 400.76 71.0745 400.215 71.0745Z" fill="white"/>
<path id="Rectangle 422_2" d="M403.889 69.605H403.29C402.746 69.605 402.304 70.0465 402.304 70.5912V73.3947C402.304 73.9393 402.746 74.3809 403.29 74.3809H403.889C404.434 74.3809 404.876 73.9393 404.876 73.3947V70.5912C404.876 70.0465 404.434 69.605 403.889 69.605Z" fill="white"/>
<path id="Rectangle 423_2" d="M407.563 67.7681H406.964C406.419 67.7681 405.978 68.2096 405.978 68.7543V73.3947C405.978 73.9393 406.419 74.3809 406.964 74.3809H407.563C408.108 74.3809 408.549 73.9393 408.549 73.3947V68.7543C408.549 68.2096 408.108 67.7681 407.563 67.7681Z" fill="white"/>
<path id="Rectangle 424_2" d="M411.236 65.9312H410.637C410.092 65.9312 409.651 66.3727 409.651 66.9174V73.3946C409.651 73.9393 410.092 74.3809 410.637 74.3809H411.236C411.781 74.3809 412.223 73.9393 412.223 73.3946V66.9174C412.223 66.3727 411.781 65.9312 411.236 65.9312Z" fill="white"/>
</g>
<g id="Group 34_2">
<path id="Vector 36_3" d="M447.942 72.2825V69.4421C448.731 69.9155 448.889 70.3889 448.889 70.8623C448.889 71.3357 448.731 71.8091 447.942 72.2825Z" fill="white" fill-opacity="0.5"/>
<path id="Rectangle 413_2" d="M445.418 67.2329H434.056C433.185 67.2329 432.478 67.9394 432.478 68.8109V72.9137C432.478 73.7852 433.185 74.4917 434.056 74.4917H445.418C446.289 74.4917 446.996 73.7852 446.996 72.9137V68.8109C446.996 67.9394 446.289 67.2329 445.418 67.2329Z" stroke="white" stroke-opacity="0.5" stroke-width="0.631197"/>
<path id="Rectangle 414_2" d="M445.102 68.1797H434.372C433.849 68.1797 433.425 68.6036 433.425 69.1265V72.5981C433.425 73.121 433.849 73.5449 434.372 73.5449H445.102C445.625 73.5449 446.049 73.121 446.049 72.5981V69.1265C446.049 68.6036 445.625 68.1797 445.102 68.1797Z" fill="#FBF9FC"/>
</g>
<g id="Group 33_2">
<path id="Subtract_4" fill-rule="evenodd" clip-rule="evenodd" d="M426.299 69.6152L427.483 68.4313C426.128 66.898 424.146 65.9312 421.939 65.9312C419.725 65.9312 417.738 66.904 416.382 68.4455L417.565 69.6277C418.71 68.5582 420.248 67.9036 421.939 67.9036C423.623 67.9036 425.155 68.5531 426.299 69.6152Z" fill="white"/>
<path id="Subtract_5" fill-rule="evenodd" clip-rule="evenodd" d="M426.61 72.5268L426.609 72.526L426.608 72.5268H426.61ZM419.591 71.9269L418.547 70.7884C419.488 69.8617 420.797 69.3134 422.221 69.3751C423.52 69.4314 424.68 69.9852 425.524 70.8448L424.369 71.9039C423.773 71.3834 423.002 71.0542 422.15 71.0173C421.172 70.9749 420.269 71.3246 419.591 71.9269Z" fill="white"/>
<path id="Vector 37_3" d="M421.939 74.314L420.459 72.8347C420.931 72.3869 421.281 72.1772 421.939 72.1772C422.596 72.1772 422.943 72.3452 423.418 72.8347L421.939 74.314Z" fill="white"/>
</g>
<text id="22:31_2" fill="white" xml:space="preserve" style="white-space: pre" font-family="Source Sans Pro" font-size="12.8212" font-weight="bold" letter-spacing="0em"><tspan x="177.711" y="74.4293">22:31</tspan></text>
</g>
<g id="Group 337">
<text id="Nasser Yousef Ali_2" fill="#FBF9FC" xml:space="preserve" style="white-space: pre" font-family="Sora" font-size="14.5386" font-weight="bold" letter-spacing="0em"><tspan x="263.616" y="128.392">Nasser Yousef Ali</tspan></text>
<path id="Union_4" fill-rule="evenodd" clip-rule="evenodd" d="M226.438 114.837V113.341C226.438 113.341 226.439 113.339 226.44 113.337C226.445 113.32 226.462 113.268 226.511 113.185C226.584 113.058 226.707 112.899 226.891 112.749C227.245 112.458 227.859 112.17 228.86 112.244C233.037 112.55 235.27 115.408 235.27 117.411V130.746C235.27 130.779 235.268 130.805 235.266 130.825C235.245 130.828 235.218 130.829 235.183 130.829H232.609C232.574 130.829 232.547 130.828 232.526 130.825C232.524 130.805 232.523 130.779 232.523 130.746V118.437C232.523 117.514 232.073 116.622 231.439 115.973C230.802 115.321 229.903 114.837 228.912 114.837H226.438ZM228.912 116.255H226.438V130.746C226.438 131.11 226.374 131.557 226.031 131.883C225.696 132.202 225.257 132.248 224.934 132.248H222.313C222.005 132.248 221.601 132.189 221.274 131.904C220.927 131.601 220.808 131.173 220.808 130.746V118.297C220.808 117.555 221.22 116.707 221.78 116.069C222.35 115.42 223.207 114.837 224.232 114.837H225.02V113.308C225.02 113.024 225.14 112.723 225.283 112.476C225.44 112.204 225.673 111.914 225.991 111.652C226.641 111.119 227.619 110.731 228.964 110.829C233.679 111.175 236.688 114.477 236.688 117.411V130.746C236.688 131.096 236.609 131.507 236.303 131.826C235.992 132.15 235.572 132.248 235.183 132.248H232.609C232.22 132.248 231.801 132.15 231.489 131.826C231.183 131.507 231.104 131.096 231.104 130.746V118.437C231.104 117.965 230.862 117.411 230.424 116.964C229.99 116.519 229.438 116.255 228.912 116.255ZM224.232 116.255H225.02V130.746C225.02 130.777 225.019 130.804 225.018 130.827C224.994 130.829 224.966 130.829 224.934 130.829H222.313C222.279 130.829 222.251 130.828 222.23 130.825C222.228 130.805 222.226 130.779 222.226 130.746V118.297C222.226 118.014 222.423 117.486 222.846 117.005C223.259 116.535 223.759 116.255 224.232 116.255ZM248.834 132.204V133.7C248.83 133.709 248.815 133.763 248.762 133.856C248.688 133.983 248.565 134.141 248.382 134.292C248.027 134.583 247.413 134.871 246.412 134.797C242.235 134.49 240.003 131.633 240.003 129.63V116.295C240.003 116.262 240.004 116.236 240.007 116.216C240.027 116.213 240.054 116.211 240.089 116.211H242.663C242.698 116.211 242.725 116.213 242.746 116.216C242.748 116.236 242.75 116.262 242.75 116.295V128.604C242.75 129.526 243.199 130.419 243.834 131.068C244.471 131.72 245.369 132.204 246.36 132.204H248.834ZM246.36 130.785H248.834V116.295C248.834 115.931 248.898 115.484 249.241 115.157C249.577 114.839 250.015 114.793 250.338 114.793H252.959C253.268 114.793 253.671 114.851 253.999 115.137C254.346 115.439 254.464 115.868 254.464 116.295V128.744C254.464 129.486 254.053 130.333 253.492 130.972C252.923 131.62 252.066 132.204 251.041 132.204H250.252V133.732C250.252 134.016 250.132 134.318 249.989 134.565C249.833 134.837 249.6 135.127 249.281 135.389C248.631 135.922 247.653 136.31 246.309 136.211C241.594 135.865 238.585 132.564 238.585 129.63V116.295C238.585 115.945 238.663 115.534 238.969 115.215C239.281 114.891 239.7 114.793 240.089 114.793H242.663C243.052 114.793 243.472 114.891 243.783 115.215C244.089 115.534 244.168 115.945 244.168 116.295V128.604C244.168 129.076 244.411 129.629 244.848 130.077C245.282 130.521 245.834 130.785 246.36 130.785ZM251.041 130.785H250.252V116.295C250.252 116.264 250.253 116.237 250.254 116.214C250.278 116.212 250.306 116.211 250.338 116.211H252.959C252.994 116.211 253.021 116.213 253.042 116.215C253.044 116.235 253.046 116.262 253.046 116.295V128.744C253.046 129.027 252.849 129.555 252.427 130.036C252.014 130.506 251.513 130.785 251.041 130.785Z" fill="white"/>
</g>
<g id="Clip path group_2">
<mask id="mask1_270_153" style="mask-type:luminance" maskUnits="userSpaceOnUse" x="157" y="580" width="303" height="91">
<g id="clip1">
<path id="Vector_38" d="M459.888 580.896H157V670.551H459.888V580.896Z" fill="white"/>
</g>
</mask>
<g mask="url(#mask1_270_153)">
<g id="component-menu">
<path id="Rectangle 426_3" d="M248.467 580.896H171.258C169.92 580.896 168.835 581.981 168.835 583.319V668.221C168.835 669.559 169.92 670.644 171.258 670.644H248.467C249.806 670.644 250.891 669.559 250.891 668.221V583.319C250.891 581.981 249.806 580.896 248.467 580.896Z" fill="#9C4FB4"/>
<text id="Transferir" fill="#EDEAEF" xml:space="preserve" style="white-space: pre" font-family="Source Sans Pro" font-size="11.8349" letter-spacing="0em"><tspan x="177.711" y="660.54">Transferir</tspan></text>
<path id="Rectangle 427_2" d="M433.882 580.896H356.672C355.334 580.896 354.249 581.981 354.249 583.319V668.221C354.249 669.559 355.334 670.644 356.672 670.644H433.882C435.22 670.644 436.305 669.559 436.305 668.221V583.319C436.305 581.981 435.22 580.896 433.882 580.896Z" fill="#9C4FB4"/>
<text id="Cobrar" fill="#EDEAEF" xml:space="preserve" style="white-space: pre" font-family="Source Sans Pro" font-size="11.8349" letter-spacing="0em"><tspan x="362.964" y="660.659">Cobrar</tspan></text>
<path id="Rectangle 428_2" d="M341.174 580.896H263.965C262.627 580.896 261.542 581.981 261.542 583.319V668.221C261.542 669.559 262.627 670.644 263.965 670.644H341.174C342.513 670.644 343.598 669.559 343.598 668.221V583.319C343.598 581.981 342.513 580.896 341.174 580.896Z" fill="#9C4FB4"/>
<text id="Depositar" fill="#EDEAEF" xml:space="preserve" style="white-space: pre" font-family="Source Sans Pro" font-size="11.8349" letter-spacing="0em"><tspan x="270.418" y="660.54">Depositar </tspan></text>
<g id="Group 328_2">
<g id="Group 323_2">
<path id="Vector_38_2" d="M187.485 595.69V606.538" stroke="#EDEAEF" stroke-width="0.807701" stroke-linecap="round" stroke-linejoin="round"/>
<path id="Vector_39" d="M189.944 597.662H186.256C185.8 597.662 185.362 597.844 185.039 598.168C184.717 598.491 184.535 598.93 184.535 599.388C184.535 599.846 184.717 600.285 185.039 600.608C185.362 600.932 185.8 601.114 186.256 601.114H188.715C189.171 601.114 189.609 601.296 189.932 601.619C190.254 601.943 190.436 602.382 190.436 602.84C190.436 603.298 190.254 603.737 189.932 604.06C189.609 604.384 189.171 604.566 188.715 604.566H184.535" stroke="#EDEAEF" stroke-width="0.807701" stroke-linecap="round" stroke-linejoin="round"/>
</g>
<path id="Vector_40" d="M187.485 591.745C182.054 591.745 177.651 596.16 177.651 601.607C177.651 607.054 182.054 611.47 187.485 611.47C192.917 611.47 197.319 607.054 197.319 601.607C197.319 600.393 197.101 599.23 196.7 598.155" stroke="#EDEAEF" stroke-width="0.807701" stroke-linecap="round" stroke-linejoin="round"/>
<g id="Group 324_2">
<path id="Vector_41" d="M198.303 592.731L194.369 588.786L190.436 592.731" stroke="#EDEAEF" stroke-width="0.807701" stroke-linecap="round" stroke-linejoin="round"/>
<path id="Vector_42" d="M194.369 596.676V588.786" stroke="#EDEAEF" stroke-width="0.807701" stroke-linecap="round" stroke-linejoin="round"/>
</g>
</g>
<g id="Group 329_2">
<g id="Group 325_2">
<path id="Vector_43" d="M279.925 595.69V606.538" stroke="#EDEAEF" stroke-width="0.807701" stroke-linecap="round" stroke-linejoin="round"/>
<path id="Vector_44" d="M282.384 597.662H278.696C278.24 597.662 277.802 597.844 277.479 598.168C277.156 598.491 276.975 598.93 276.975 599.388C276.975 599.846 277.156 600.285 277.479 600.608C277.802 600.932 278.24 601.114 278.696 601.114H281.155C281.611 601.114 282.049 601.296 282.372 601.619C282.694 601.943 282.876 602.382 282.876 602.84C282.876 603.298 282.694 603.737 282.372 604.06C282.049 604.384 281.611 604.566 281.155 604.566H276.975" stroke="#EDEAEF" stroke-width="0.807701" stroke-linecap="round" stroke-linejoin="round"/>
</g>
<path id="Vector_45" d="M279.925 591.745C274.494 591.745 270.091 596.16 270.091 601.607C270.091 607.054 274.494 611.47 279.925 611.47C285.356 611.47 289.759 607.054 289.759 601.607C289.759 600.393 289.54 599.23 289.14 598.155" stroke="#EDEAEF" stroke-width="0.807701" stroke-linecap="round" stroke-linejoin="round"/>
<g id="Group 327_2">
<path id="Vector_46" d="M282.876 592.731L286.809 596.676L290.743 592.731" stroke="#EDEAEF" stroke-width="0.807701" stroke-linecap="round" stroke-linejoin="round"/>
<path id="Vector_47" d="M286.809 588.786V596.676" stroke="#EDEAEF" stroke-width="0.807701" stroke-linecap="round" stroke-linejoin="round"/>
</g>
</g>
<g id="Group 330_2">
<g id="Group 326_2">
<path id="Vector_48" d="M372.589 594.703V602.758" stroke="#EDEAEF" stroke-width="0.807701" stroke-linecap="round" stroke-linejoin="round"/>
<path id="Vector_49" d="M374.414 596.168H371.676C371.337 596.168 371.012 596.303 370.773 596.543C370.533 596.783 370.398 597.109 370.398 597.449C370.398 597.789 370.533 598.115 370.773 598.355C371.012 598.595 371.337 598.73 371.676 598.73H373.501C373.84 598.73 374.165 598.865 374.405 599.106C374.644 599.346 374.779 599.672 374.779 600.012C374.779 600.352 374.644 600.678 374.405 600.918C374.165 601.158 373.84 601.293 373.501 601.293H370.398" stroke="#EDEAEF" stroke-width="0.807701" stroke-linecap="round" stroke-linejoin="round"/>
</g>
<path id="Vector_50" d="M381.216 603.58C381.216 604.103 381.008 604.604 380.639 604.974C380.271 605.344 379.77 605.552 379.249 605.552H367.448L363.514 609.497V593.717C363.514 593.194 363.721 592.692 364.09 592.322C364.459 591.952 364.959 591.745 365.481 591.745H379.249C379.77 591.745 380.271 591.952 380.639 592.322C381.008 592.692 381.216 593.194 381.216 593.717V603.58Z" stroke="#EDEAEF" stroke-width="0.807701" stroke-linecap="round" stroke-linejoin="round"/>
</g>
<path id="Rectangle 429" d="M461.299 580.896H449.379C448.041 580.896 446.956 581.981 446.956 583.319V668.221C446.956 669.559 448.041 670.644 449.379 670.644H461.299C462.637 670.644 463.722 669.559 463.722 668.221V583.319C463.722 581.981 462.637 580.896 461.299 580.896Z" fill="#9C4FB4"/>
</g>
</g>
</g>
</g>
<g id="fignu2-screen4" class="fignu2-screen4">
<path id="Vector_51" d="M302.543 151.736L308.444 157.653L314.344 151.736" stroke="#FBF9FC" stroke-width="0.986024" stroke-linecap="round" stroke-linejoin="round"/>
<path id="Rectangle 427_3" d="M433.086 243.415H182.636C179.913 243.415 177.706 245.622 177.706 248.345V498.795C177.706 501.518 179.913 503.725 182.636 503.725H433.086C435.809 503.725 438.016 501.518 438.016 498.795V248.345C438.016 245.622 435.809 243.415 433.086 243.415Z" fill="#FBF8FC"/>
<text id="Fatura atual" fill="#54B9C7" xml:space="preserve" style="white-space: pre" font-family="Source Sans Pro" font-size="11.8323" letter-spacing="0em"><tspan x="192.539" y="351.167">FATURA ATUAL </tspan></text>
<text id="Limite dispon&#195;&#131;&#194;&#173;vel" fill="#3C3B3D" xml:space="preserve" style="white-space: pre" font-family="Source Sans Pro" font-size="8.87422" letter-spacing="0em"><tspan x="192.539" y="397.6">Limite dispon&#xed;vel</tspan></text>
<text id="Cart&#195;&#131;&#194;&#163;o de cr&#195;&#131;&#194;&#169;dito" fill="#3C3B3D" xml:space="preserve" style="white-space: pre" font-family="Source Sans Pro" font-size="11.8323" letter-spacing="0em"><tspan x="231.308" y="270.397">Cart&#xe3;o de cr&#xe9;dito</tspan></text>
<g id="R$ 150,64">
<text id="R$ ,64" fill="#54B9C7" xml:space="preserve" style="white-space: pre" font-family="Sora" font-size="23.6646" letter-spacing="0em"><tspan x="190.923" y="378.669">R$         ,64</tspan></text>
<text id="150" fill="#54B9C7" xml:space="preserve" style="white-space: pre" font-family="Sora" font-size="23.6646" font-weight="bold" letter-spacing="0em"><tspan x="224" y="379.046"> 150</tspan></text>
</g>
<text id="R$ 150,64_2" fill="#9EC249" xml:space="preserve" style="white-space: pre" font-family="Sora" font-size="8.87422" font-weight="bold" letter-spacing="0em"><tspan x="260.386" y="397.325">R$ 150,64</tspan></text>
<g id="Group 324_3">
<path id="Vector_52" d="M396.95 270.085C396.95 270.085 400.884 262.195 407.767 262.195C414.651 262.195 418.585 270.085 418.585 270.085C418.585 270.085 414.651 277.975 407.767 277.975C400.884 277.975 396.95 270.085 396.95 270.085Z" stroke="#3C3B3D" stroke-width="0.986024" stroke-linecap="round" stroke-linejoin="round"/>
<path id="Vector_53" d="M407.767 273.044C409.397 273.044 410.718 271.719 410.718 270.085C410.718 268.451 409.397 267.127 407.767 267.127C406.138 267.127 404.817 268.451 404.817 270.085C404.817 271.719 406.138 273.044 407.767 273.044Z" stroke="#3C3B3D" stroke-width="0.986024" stroke-linecap="round" stroke-linejoin="round"/>
</g>
<path id="Ellipse 16_2" d="M293.071 523.445C294.705 523.445 296.029 522.121 296.029 520.487C296.029 518.853 294.705 517.529 293.071 517.529C291.437 517.529 290.113 518.853 290.113 520.487C290.113 522.121 291.437 523.445 293.071 523.445Z" fill="#BB71D2"/>
<path id="Ellipse 17_2" d="M308.848 523.445C310.482 523.445 311.806 522.121 311.806 520.487C311.806 518.853 310.482 517.529 308.848 517.529C307.214 517.529 305.89 518.853 305.89 520.487C305.89 522.121 307.214 523.445 308.848 523.445Z" fill="#EDEAEF"/>
<path id="Ellipse 18_2" d="M324.624 523.445C326.258 523.445 327.582 522.121 327.582 520.487C327.582 518.853 326.258 517.529 324.624 517.529C322.99 517.529 321.666 518.853 321.666 520.487C321.666 522.121 322.99 523.445 324.624 523.445Z" fill="#BB71D2"/>
<g id="Group 325_3">
<path id="Vector_54" d="M213.054 259.237H195.353C194.266 259.237 193.386 260.12 193.386 261.209V273.044C193.386 274.133 194.266 275.017 195.353 275.017H213.054C214.14 275.017 215.021 274.133 215.021 273.044V261.209C215.021 260.12 214.14 259.237 213.054 259.237Z" stroke="#3C3B3D" stroke-width="0.986024" stroke-linecap="round" stroke-linejoin="round"/>
<path id="Vector_55" d="M193.386 265.154H215.021" stroke="#3C3B3D" stroke-width="0.986024" stroke-linecap="round" stroke-linejoin="round"/>
</g>
<path id="Rectangle 428_3" d="M433.087 243.415C435.809 243.415 438.017 245.622 438.017 248.345V305.534H433.087V243.415Z" fill="#F3AE3C"/>
<path id="Rectangle 429_2" d="M438.017 305.534H433.087V367.654H438.017V305.534Z" fill="#54B9C7"/>
<path id="Rectangle 430" d="M438.017 367.654H433.087V456.396H438.017V367.654Z" fill="#9EC249"/>
<path id="Rectangle 431" d="M177.706 444.564H438.017V498.795C438.017 501.518 435.809 503.725 433.087 503.725H182.636C179.914 503.725 177.706 501.518 177.706 498.795V444.564Z" fill="#EDEAEF"/>
<g id="Transfer&#195;&#131;&#194;&#170;ncia de R$ 500,00 feita para Juliana ontem_2">
<text id="Transfer&#195;&#170;ncia de R$ 500,00 feita para Juliana_2" fill="#3C3B3D" xml:space="preserve" style="white-space: pre" font-family="Source Sans Pro" font-size="8.87422" letter-spacing="0em"><tspan x="236.868" y="472.234">Transfer&#xea;ncia de R$ 500,00 feita para Juliana </tspan></text>
<text id="ontem_2" fill="#3C3B3D" xml:space="preserve" style="white-space: pre" font-family="Source Sans Pro" font-size="8.87422" letter-spacing="0em"><tspan x="236.868" y="484.234">ontem</tspan></text>
</g>
<g id="Group 326_3">
<path id="Vector_56" d="M207.153 470.293V481.142" stroke="#3C3B3D" stroke-width="0.986024" stroke-linecap="round" stroke-linejoin="round"/>
<path id="Vector_57" d="M209.612 472.266H205.924C205.468 472.266 205.03 472.448 204.707 472.771C204.384 473.095 204.203 473.534 204.203 473.992C204.203 474.449 204.384 474.888 204.707 475.212C205.03 475.536 205.468 475.718 205.924 475.718H208.383C208.839 475.718 209.277 475.899 209.599 476.223C209.922 476.547 210.103 476.986 210.103 477.444C210.103 477.901 209.922 478.34 209.599 478.664C209.277 478.988 208.839 479.169 208.383 479.169H204.203" stroke="#3C3B3D" stroke-width="0.986024" stroke-linecap="round" stroke-linejoin="round"/>
</g>
<path id="Vector_58" d="M207.153 466.348C201.722 466.348 197.319 470.764 197.319 476.211C197.319 481.658 201.722 486.073 207.153 486.073C212.585 486.073 216.987 481.658 216.987 476.211C216.987 474.996 216.769 473.833 216.368 472.759" stroke="#3C3B3D" stroke-width="0.986024" stroke-linecap="round" stroke-linejoin="round"/>
<g id="Group 327_3">
<path id="Vector_59" d="M217.971 467.334L214.037 463.389L210.104 467.334" stroke="#3C3B3D" stroke-width="0.986024" stroke-linecap="round" stroke-linejoin="round"/>
<path id="Vector_60" d="M214.037 471.279V463.389" stroke="#3C3B3D" stroke-width="0.986024" stroke-linecap="round" stroke-linejoin="round"/>
</g>
<path id="Vector_61" d="M415.635 481.142L421.535 475.224L415.635 469.307" stroke="#3C3B3D" stroke-width="0.986024" stroke-linecap="round" stroke-linejoin="round"/>
<g id="Group 328_3">
<g id="Group 32_3">
<path id="Rectangle 421_3" d="M400.161 71.0723H399.562C399.018 71.0723 398.576 71.5137 398.576 72.0583V73.3919C398.576 73.9365 399.018 74.3779 399.562 74.3779H400.161C400.706 74.3779 401.147 73.9365 401.147 73.3919V72.0583C401.147 71.5137 400.706 71.0723 400.161 71.0723Z" fill="white"/>
<path id="Rectangle 422_3" d="M403.834 69.6033H403.235C402.691 69.6033 402.249 70.0447 402.249 70.5893V73.3921C402.249 73.9367 402.691 74.3781 403.235 74.3781H403.834C404.379 74.3781 404.82 73.9367 404.82 73.3921V70.5893C404.82 70.0447 404.379 69.6033 403.834 69.6033Z" fill="white"/>
<path id="Rectangle 423_3" d="M407.507 67.7666H406.908C406.364 67.7666 405.922 68.2081 405.922 68.7526V73.3919C405.922 73.9365 406.364 74.378 406.908 74.378H407.507C408.052 74.378 408.493 73.9365 408.493 73.3919V68.7526C408.493 68.2081 408.052 67.7666 407.507 67.7666Z" fill="white"/>
<path id="Rectangle 424_3" d="M411.18 65.9302H410.581C410.037 65.9302 409.595 66.3716 409.595 66.9162V73.392C409.595 73.9365 410.037 74.378 410.581 74.378H411.18C411.725 74.378 412.166 73.9365 412.166 73.392V66.9162C412.166 66.3716 411.725 65.9302 411.18 65.9302Z" fill="white"/>
</g>
<g id="Group 34_3">
<path id="Vector 36_4" d="M447.877 72.2801V69.4404C448.666 69.9137 448.824 70.387 448.824 70.8602C448.824 71.3335 448.666 71.8068 447.877 72.2801Z" fill="white" fill-opacity="0.5"/>
<path id="Rectangle 413_3" d="M445.353 67.2317H433.994C433.122 67.2317 432.416 67.938 432.416 68.8093V72.9112C432.416 73.7825 433.122 74.4888 433.994 74.4888H445.353C446.224 74.4888 446.93 73.7825 446.93 72.9112V68.8093C446.93 67.938 446.224 67.2317 445.353 67.2317Z" stroke="white" stroke-opacity="0.5" stroke-width="0.631056"/>
<path id="Rectangle 414_3" d="M445.038 68.1782H434.31C433.787 68.1782 433.363 68.602 433.363 69.1248V72.5956C433.363 73.1184 433.787 73.5422 434.31 73.5422H445.038C445.56 73.5422 445.984 73.1184 445.984 72.5956V69.1248C445.984 68.602 445.56 68.1782 445.038 68.1782Z" fill="#FBF9FC"/>
</g>
<g id="Group 33_3">
<path id="Subtract_6" fill-rule="evenodd" clip-rule="evenodd" d="M427.423 68.4301L426.239 69.6135C425.096 68.5516 423.564 67.9023 421.88 67.9023C420.189 67.9023 418.652 68.5567 417.507 69.6261L416.325 68.4439C417.68 66.9028 419.666 65.9302 421.88 65.9302C424.087 65.9302 426.068 66.897 427.423 68.4301Z" fill="white"/>
<path id="Subtract_7" fill-rule="evenodd" clip-rule="evenodd" d="M426.549 72.5241C426.549 72.5243 426.549 72.5239 426.549 72.5241ZM419.532 71.9244L418.489 70.7861C419.43 69.8596 420.738 69.3114 422.162 69.3731C423.46 69.4294 424.62 69.9832 425.464 70.8426L424.31 71.9013C423.713 71.381 422.943 71.0519 422.091 71.0149C421.113 70.9726 420.21 71.3222 419.532 71.9244Z" fill="white"/>
<path id="Vector 37_4" d="M421.88 74.3115L420.401 72.8325C420.872 72.3849 421.222 72.175 421.88 72.175C422.537 72.175 422.884 72.3431 423.359 72.8325L421.88 74.3115Z" fill="white"/>
</g>
<text id="22:31_3" fill="white" xml:space="preserve" style="white-space: pre" font-family="Source Sans Pro" font-size="12.8183" font-weight="bold" letter-spacing="0em"><tspan x="177.706" y="74.4302">22:31</tspan></text>
</g>
<g id="Group 329_3">
<text id="Nasser Yousef Ali_3" fill="#FBF9FC" xml:space="preserve" style="white-space: pre" font-family="Sora" font-size="14.5386" font-weight="bold" letter-spacing="0em"><tspan x="264.424" y="128.394">Nasser Yousef Ali</tspan></text>
<path id="Union_5" fill-rule="evenodd" clip-rule="evenodd" d="M227.246 114.838V113.342C227.246 113.342 227.247 113.34 227.248 113.338C227.253 113.321 227.27 113.27 227.318 113.186C227.392 113.059 227.515 112.901 227.698 112.75C228.053 112.459 228.667 112.171 229.668 112.245C233.845 112.552 236.077 115.409 236.077 117.413V130.747C236.077 130.78 236.076 130.806 236.073 130.826C236.053 130.829 236.026 130.831 235.991 130.831H233.417C233.382 130.831 233.355 130.829 233.334 130.826C233.332 130.806 233.33 130.78 233.33 130.747V118.438C233.33 117.516 232.881 116.623 232.246 115.974C231.609 115.322 230.71 114.838 229.719 114.838H227.246ZM229.719 116.257H227.246V130.747C227.246 131.111 227.182 131.558 226.838 131.885C226.503 132.203 226.065 132.249 225.741 132.249H223.121C222.812 132.249 222.409 132.191 222.081 131.905C221.734 131.603 221.616 131.174 221.616 130.747V118.298C221.616 117.556 222.027 116.709 222.588 116.07C223.157 115.422 224.014 114.838 225.039 114.838H225.828V113.31C225.828 113.026 225.948 112.724 226.09 112.477C226.247 112.205 226.48 111.915 226.799 111.653C227.449 111.12 228.427 110.732 229.771 110.831C234.486 111.177 237.495 114.478 237.495 117.413V130.747C237.495 131.097 237.417 131.508 237.111 131.827C236.799 132.151 236.38 132.249 235.991 132.249H233.417C233.028 132.249 232.608 132.151 232.297 131.827C231.991 131.508 231.912 131.097 231.912 130.747V118.438C231.912 117.966 231.669 117.413 231.232 116.965C230.798 116.521 230.246 116.257 229.719 116.257ZM225.039 116.257H225.828V130.747C225.828 130.778 225.827 130.805 225.826 130.828C225.802 130.83 225.774 130.831 225.741 130.831H223.121C223.086 130.831 223.059 130.829 223.038 130.827C223.036 130.807 223.034 130.78 223.034 130.747V118.298C223.034 118.015 223.231 117.487 223.653 117.006C224.066 116.536 224.566 116.257 225.039 116.257ZM249.642 132.205V133.701C249.642 133.701 249.641 133.703 249.64 133.705C249.635 133.722 249.618 133.774 249.569 133.857C249.496 133.984 249.373 134.143 249.189 134.293C248.835 134.584 248.221 134.872 247.22 134.798C243.043 134.492 240.81 131.634 240.81 129.631V116.296C240.81 116.263 240.812 116.237 240.814 116.217C240.835 116.214 240.862 116.213 240.897 116.213H243.471C243.506 116.213 243.533 116.214 243.554 116.217C243.556 116.237 243.557 116.263 243.557 116.296V128.605C243.557 129.528 244.007 130.42 244.641 131.069C245.278 131.721 246.177 132.205 247.168 132.205H249.642ZM247.168 130.787H249.642V116.296C249.642 115.932 249.706 115.485 250.049 115.159C250.384 114.84 250.823 114.795 251.146 114.795H253.767C254.075 114.795 254.479 114.853 254.806 115.138C255.153 115.441 255.272 115.869 255.272 116.296V128.745C255.272 129.487 254.86 130.335 254.3 130.973C253.73 131.622 252.873 132.205 251.849 132.205H251.06V133.734C251.06 134.018 250.94 134.319 250.797 134.566C250.64 134.838 250.407 135.128 250.089 135.39C249.439 135.923 248.461 136.311 247.116 136.213C242.401 135.867 239.392 132.565 239.392 129.631V116.296C239.392 115.946 239.471 115.535 239.777 115.216C240.089 114.892 240.508 114.795 240.897 114.795H243.471C243.86 114.795 244.279 114.892 244.591 115.216C244.897 115.535 244.976 115.946 244.976 116.296V128.605C244.976 129.077 245.218 129.631 245.656 130.078C246.09 130.523 246.642 130.787 247.168 130.787ZM251.849 130.787H251.06V116.296C251.06 116.265 251.061 116.238 251.062 116.215C251.086 116.213 251.114 116.213 251.146 116.213H253.767C253.801 116.213 253.829 116.214 253.85 116.217C253.852 116.237 253.854 116.263 253.854 116.296V128.745C253.854 129.028 253.657 129.556 253.234 130.037C252.821 130.507 252.321 130.787 251.849 130.787Z" fill="white"/>
</g>
<g id="Clip path group_3">
<mask id="mask2_270_153" style="mask-type:luminance" maskUnits="userSpaceOnUse" x="157" y="580" width="303" height="91">
<g id="clip2">
<path id="Vector_62" d="M459.888 580.897H157V670.552H459.888V580.897Z" fill="white"/>
</g>
</mask>
<g mask="url(#mask2_270_153)">
<g id="component-menu_2">
<path id="Rectangle 426_4" d="M248.467 580.897H171.258C169.92 580.897 168.835 581.982 168.835 583.32V668.222C168.835 669.56 169.92 670.645 171.258 670.645H248.467C249.806 670.645 250.891 669.56 250.891 668.222V583.32C250.891 581.982 249.806 580.897 248.467 580.897Z" fill="#9C4FB4"/>
<text id="Transferir_2" fill="#EDEAEF" xml:space="preserve" style="white-space: pre" font-family="Source Sans Pro" font-size="11.8349" letter-spacing="0em"><tspan x="177.711" y="660.541">Transferir</tspan></text>
<path id="Rectangle 427_4" d="M433.882 580.897H356.672C355.334 580.897 354.249 581.982 354.249 583.32V668.222C354.249 669.56 355.334 670.645 356.672 670.645H433.882C435.22 670.645 436.305 669.56 436.305 668.222V583.32C436.305 581.982 435.22 580.897 433.882 580.897Z" fill="#9C4FB4"/>
<text id="Cobrar_2" fill="#EDEAEF" xml:space="preserve" style="white-space: pre" font-family="Source Sans Pro" font-size="11.8349" letter-spacing="0em"><tspan x="362.964" y="660.66">Cobrar</tspan></text>
<path id="Rectangle 428_4" d="M341.174 580.897H263.965C262.627 580.897 261.542 581.982 261.542 583.32V668.222C261.542 669.56 262.627 670.645 263.965 670.645H341.174C342.513 670.645 343.598 669.56 343.598 668.222V583.32C343.598 581.982 342.513 580.897 341.174 580.897Z" fill="#9C4FB4"/>
<text id="Depositar_2" fill="#EDEAEF" xml:space="preserve" style="white-space: pre" font-family="Source Sans Pro" font-size="11.8349" letter-spacing="0em"><tspan x="270.418" y="660.541">Depositar </tspan></text>
<g id="Group 328_4">
<g id="Group 323_3">
<path id="Vector_62_2" d="M187.485 595.691V606.54" stroke="#EDEAEF" stroke-width="0.807701" stroke-linecap="round" stroke-linejoin="round"/>
<path id="Vector_63" d="M189.944 597.663H186.256C185.8 597.663 185.362 597.845 185.039 598.169C184.717 598.493 184.535 598.932 184.535 599.389C184.535 599.847 184.717 600.286 185.039 600.61C185.362 600.933 185.8 601.115 186.256 601.115H188.715C189.171 601.115 189.609 601.297 189.932 601.621C190.254 601.944 190.436 602.383 190.436 602.841C190.436 603.299 190.254 603.738 189.932 604.062C189.609 604.385 189.171 604.567 188.715 604.567H184.535" stroke="#EDEAEF" stroke-width="0.807701" stroke-linecap="round" stroke-linejoin="round"/>
</g>
<path id="Vector_64" d="M187.485 591.746C182.054 591.746 177.651 596.161 177.651 601.608C177.651 607.055 182.054 611.471 187.485 611.471C192.917 611.471 197.319 607.055 197.319 601.608C197.319 600.394 197.101 599.231 196.7 598.157" stroke="#EDEAEF" stroke-width="0.807701" stroke-linecap="round" stroke-linejoin="round"/>
<g id="Group 324_4">
<path id="Vector_65" d="M198.303 592.732L194.369 588.787L190.436 592.732" stroke="#EDEAEF" stroke-width="0.807701" stroke-linecap="round" stroke-linejoin="round"/>
<path id="Vector_66" d="M194.369 596.677V588.787" stroke="#EDEAEF" stroke-width="0.807701" stroke-linecap="round" stroke-linejoin="round"/>
</g>
</g>
<g id="Group 329_4">
<g id="Group 325_4">
<path id="Vector_67" d="M279.925 595.691V606.54" stroke="#EDEAEF" stroke-width="0.807701" stroke-linecap="round" stroke-linejoin="round"/>
<path id="Vector_68" d="M282.384 597.663H278.696C278.24 597.663 277.802 597.845 277.479 598.169C277.156 598.493 276.975 598.932 276.975 599.389C276.975 599.847 277.156 600.286 277.479 600.61C277.802 600.933 278.24 601.115 278.696 601.115H281.155C281.611 601.115 282.049 601.297 282.372 601.621C282.694 601.944 282.876 602.383 282.876 602.841C282.876 603.299 282.694 603.738 282.372 604.062C282.049 604.385 281.611 604.567 281.155 604.567H276.975" stroke="#EDEAEF" stroke-width="0.807701" stroke-linecap="round" stroke-linejoin="round"/>
</g>
<path id="Vector_69" d="M279.925 591.746C274.494 591.746 270.091 596.161 270.091 601.608C270.091 607.055 274.494 611.471 279.925 611.471C285.356 611.471 289.759 607.055 289.759 601.608C289.759 600.394 289.54 599.231 289.14 598.157" stroke="#EDEAEF" stroke-width="0.807701" stroke-linecap="round" stroke-linejoin="round"/>
<g id="Group 327_4">
<path id="Vector_70" d="M282.876 592.732L286.809 596.677L290.743 592.732" stroke="#EDEAEF" stroke-width="0.807701" stroke-linecap="round" stroke-linejoin="round"/>
<path id="Vector_71" d="M286.809 588.787V596.677" stroke="#EDEAEF" stroke-width="0.807701" stroke-linecap="round" stroke-linejoin="round"/>
</g>
</g>
<g id="Group 330_3">
<g id="Group 326_4">
<path id="Vector_72" d="M372.589 594.705V602.759" stroke="#EDEAEF" stroke-width="0.807701" stroke-linecap="round" stroke-linejoin="round"/>
<path id="Vector_73" d="M374.414 596.169H371.676C371.337 596.169 371.012 596.304 370.773 596.544C370.533 596.785 370.398 597.111 370.398 597.45C370.398 597.79 370.533 598.116 370.773 598.357C371.012 598.597 371.337 598.732 371.676 598.732H373.501C373.84 598.732 374.165 598.867 374.405 599.107C374.644 599.347 374.779 599.673 374.779 600.013C374.779 600.353 374.644 600.679 374.405 600.919C374.165 601.16 373.84 601.295 373.501 601.295H370.398" stroke="#EDEAEF" stroke-width="0.807701" stroke-linecap="round" stroke-linejoin="round"/>
</g>
<path id="Vector_74" d="M381.216 603.581C381.216 604.104 381.008 604.606 380.639 604.976C380.271 605.346 379.77 605.553 379.249 605.553H367.448L363.514 609.498V593.718C363.514 593.195 363.721 592.694 364.09 592.324C364.459 591.954 364.959 591.746 365.481 591.746H379.249C379.77 591.746 380.271 591.954 380.639 592.324C381.008 592.694 381.216 593.195 381.216 593.718V603.581Z" stroke="#EDEAEF" stroke-width="0.807701" stroke-linecap="round" stroke-linejoin="round"/>
</g>
<path id="Rectangle 429_3" d="M461.299 580.897H449.379C448.041 580.897 446.956 581.982 446.956 583.32V668.222C446.956 669.56 448.041 670.645 449.379 670.645H461.299C462.637 670.645 463.722 669.56 463.722 668.222V583.32C463.722 581.982 462.637 580.897 461.299 580.897Z" fill="#9C4FB4"/>
</g>
</g>
</g>
<path id="Rectangle 432" d="M354.929 699.102H261.236C259.874 699.102 258.77 700.206 258.77 701.568C258.77 702.929 259.874 704.033 261.236 704.033H354.929C356.291 704.033 357.395 702.929 357.395 701.568C357.395 700.206 356.291 699.102 354.929 699.102Z" fill="#EDEAEF"/>
</g>
<g id="fignu2-screen5" class="fignu2-screen5">
<path id="Vector_75" d="M302.351 151.736L308.252 157.653L314.152 151.736" stroke="#FBF9FC" stroke-width="0.986024" stroke-linecap="round" stroke-linejoin="round"/>
<path id="Rectangle 428_5" d="M432.894 243.415H182.444C179.721 243.415 177.514 245.622 177.514 248.345V498.795C177.514 501.518 179.721 503.725 182.444 503.725H432.894C435.617 503.725 437.824 501.518 437.824 498.795V248.345C437.824 245.622 435.617 243.415 432.894 243.415Z" fill="#FBF8FC"/>
<text id="Nubank rewards" fill="#211F21" xml:space="preserve" style="white-space: pre" font-family="Sora" font-size="11.8323" font-weight="bold" letter-spacing="0em"><tspan x="244.039" y="351.609">NUBANK REWARDS</tspan></text>
<g id="Acumule pontos que nunca expiram e troque por passagens a&#195;&#131;&#194;&#169;reas ou servi&#195;&#131;&#194;&#167;os que voc&#195;&#131;&#194;&#170; realmente usa.">
<text id="Acumule pontos que nunca expiram e troque por" fill="#3C3B3D" xml:space="preserve" style="white-space: pre" font-family="Source Sans Pro" font-size="8.87422" letter-spacing="0em"><tspan x="220.094" y="377.408">Acumule pontos que nunca expiram e troque por </tspan></text>
<text id="passagens a&#195;&#169;reas ou servi&#195;&#167;os que voc&#195;&#170; realmente" fill="#3C3B3D" xml:space="preserve" style="white-space: pre" font-family="Source Sans Pro" font-size="8.87422" letter-spacing="0em"><tspan x="219.024" y="389.408">passagens a&#xe9;reas ou servi&#xe7;os que voc&#xea; realmente </tspan></text>
<text id="usa." fill="#3C3B3D" xml:space="preserve" style="white-space: pre" font-family="Source Sans Pro" font-size="8.87422" letter-spacing="0em"><tspan x="302.658" y="401.408">usa.</tspan></text>
</g>
<path id="Ellipse 16_3" d="M292.879 523.445C294.513 523.445 295.837 522.121 295.837 520.487C295.837 518.853 294.513 517.529 292.879 517.529C291.245 517.529 289.921 518.853 289.921 520.487C289.921 522.121 291.245 523.445 292.879 523.445Z" fill="#BB71D2"/>
<path id="Ellipse 17_3" d="M308.655 523.445C310.289 523.445 311.613 522.121 311.613 520.487C311.613 518.853 310.289 517.529 308.655 517.529C307.021 517.529 305.697 518.853 305.697 520.487C305.697 522.121 307.021 523.445 308.655 523.445Z" fill="#BB71D2"/>
<path id="Ellipse 18_3" d="M324.432 523.445C326.066 523.445 327.39 522.121 327.39 520.487C327.39 518.853 326.066 517.529 324.432 517.529C322.798 517.529 321.474 518.853 321.474 520.487C321.474 522.121 322.798 523.445 324.432 523.445Z" fill="#EDEAEF"/>
<text id="ative o seu rewards" fill="#82269E" xml:space="preserve" style="white-space: pre" font-family="Source Sans Pro" font-size="8.87422" font-weight="bold" letter-spacing="0em"><tspan x="263.298" y="472.234">ATIVE O SEU REWARDS</tspan></text>
<path id="Rectangle 429_4" d="M406.272 450.884H213.997C212.586 450.884 211.443 452.028 211.443 453.438V486.963C211.443 488.374 212.586 489.517 213.997 489.517H406.272C407.682 489.517 408.826 488.374 408.826 486.963V453.438C408.826 452.028 407.682 450.884 406.272 450.884Z" stroke="#82269E" stroke-width="0.807701"/>
<g id="Group 323_4">
<path id="Vector_76" d="M317.102 282.907V292.769H301.368V282.907" stroke="url(#paint2_linear_270_153)" stroke-width="0.986024" stroke-linecap="round" stroke-linejoin="round"/>
<path id="Vector_77" d="M319.069 277.975H299.401V282.907H319.069V277.975Z" stroke="url(#paint3_linear_270_153)" stroke-width="0.986024" stroke-linecap="round" stroke-linejoin="round"/>
<path id="Vector_78" d="M309.235 292.769V277.975" stroke="url(#paint4_linear_270_153)" stroke-width="0.986024" stroke-linecap="round" stroke-linejoin="round"/>
<path id="Vector_79" d="M309.235 277.975H304.81C304.158 277.975 303.532 277.715 303.071 277.253C302.61 276.791 302.351 276.164 302.351 275.51C302.351 274.856 302.61 274.229 303.071 273.766C303.532 273.304 304.158 273.044 304.81 273.044C308.252 273.044 309.235 277.975 309.235 277.975Z" stroke="url(#paint5_linear_270_153)" stroke-width="0.986024" stroke-linecap="round" stroke-linejoin="round"/>
<path id="Vector_80" d="M309.235 277.975H313.66C314.312 277.975 314.938 277.715 315.399 277.253C315.86 276.791 316.119 276.164 316.119 275.51C316.119 274.856 315.86 274.229 315.399 273.766C314.938 273.304 314.312 273.044 313.66 273.044C310.218 273.044 309.235 277.975 309.235 277.975Z" stroke="url(#paint6_linear_270_153)" stroke-width="0.986024" stroke-linecap="round" stroke-linejoin="round"/>
</g>
<g id="Group 324_5">
<g id="Group 32_4">
<path id="Rectangle 421_4" d="M399.969 71.0723H399.37C398.825 71.0723 398.384 71.5137 398.384 72.0583V73.3919C398.384 73.9365 398.825 74.3779 399.37 74.3779H399.969C400.513 74.3779 400.955 73.9365 400.955 73.3919V72.0583C400.955 71.5137 400.513 71.0723 399.969 71.0723Z" fill="white"/>
<path id="Rectangle 422_4" d="M403.642 69.6033H403.043C402.498 69.6033 402.057 70.0447 402.057 70.5893V73.3921C402.057 73.9367 402.498 74.3781 403.043 74.3781H403.642C404.187 74.3781 404.628 73.9367 404.628 73.3921V70.5893C404.628 70.0447 404.187 69.6033 403.642 69.6033Z" fill="white"/>
<path id="Rectangle 423_4" d="M407.315 67.7666H406.716C406.171 67.7666 405.73 68.2081 405.73 68.7526V73.3919C405.73 73.9365 406.171 74.378 406.716 74.378H407.315C407.859 74.378 408.301 73.9365 408.301 73.3919V68.7526C408.301 68.2081 407.859 67.7666 407.315 67.7666Z" fill="white"/>
<path id="Rectangle 424_4" d="M410.988 65.9302H410.389C409.844 65.9302 409.403 66.3716 409.403 66.9162V73.392C409.403 73.9365 409.844 74.378 410.389 74.378H410.988C411.532 74.378 411.974 73.9365 411.974 73.392V66.9162C411.974 66.3716 411.532 65.9302 410.988 65.9302Z" fill="white"/>
</g>
<g id="Group 34_4">
<path id="Vector 36_5" d="M447.685 72.2801V69.4404C448.474 69.9137 448.631 70.387 448.631 70.8602C448.631 71.3335 448.474 71.8068 447.685 72.2801Z" fill="white" fill-opacity="0.5"/>
<path id="Rectangle 413_4" d="M445.161 67.2317H433.802C432.93 67.2317 432.224 67.938 432.224 68.8093V72.9112C432.224 73.7825 432.93 74.4888 433.802 74.4888H445.161C446.032 74.4888 446.738 73.7825 446.738 72.9112V68.8093C446.738 67.938 446.032 67.2317 445.161 67.2317Z" stroke="white" stroke-opacity="0.5" stroke-width="0.631056"/>
<path id="Rectangle 414_4" d="M444.845 68.1782H434.117C433.595 68.1782 433.171 68.602 433.171 69.1248V72.5956C433.171 73.1184 433.595 73.5422 434.117 73.5422H444.845C445.368 73.5422 445.792 73.1184 445.792 72.5956V69.1248C445.792 68.602 445.368 68.1782 444.845 68.1782Z" fill="#FBF9FC"/>
</g>
<g id="Group 33_4">
<path id="Subtract_8" fill-rule="evenodd" clip-rule="evenodd" d="M427.231 68.4301L426.047 69.6135C424.903 68.5516 423.371 67.9023 421.687 67.9023C419.997 67.9023 418.459 68.5567 417.314 69.6261L416.132 68.4439C417.487 66.9028 419.474 65.9302 421.687 65.9302C423.894 65.9302 425.876 66.897 427.231 68.4301Z" fill="white"/>
<path id="Subtract_9" fill-rule="evenodd" clip-rule="evenodd" d="M426.357 72.5241C426.357 72.5243 426.357 72.5239 426.357 72.5241ZM419.34 71.9245L418.296 70.7861C419.237 69.8596 420.546 69.3114 421.969 69.3731C423.268 69.4294 424.428 69.9832 425.272 70.8426L424.117 71.9013C423.521 71.381 422.751 71.0519 421.898 71.0149C420.921 70.9726 420.018 71.3222 419.34 71.9245Z" fill="white"/>
<path id="Vector 37_5" d="M421.687 74.3115L420.208 72.8325C420.68 72.3849 421.03 72.175 421.687 72.175C422.345 72.175 422.691 72.3431 423.166 72.8325L421.687 74.3115Z" fill="white"/>
</g>
<text id="22:31_4" fill="white" xml:space="preserve" style="white-space: pre" font-family="Source Sans Pro" font-size="12.8183" font-weight="bold" letter-spacing="0em"><tspan x="177.514" y="74.4302">22:31</tspan></text>
</g>
<g id="Group 325_5">
<text id="Nasser Yousef Ali_4" fill="#FBF9FC" xml:space="preserve" style="white-space: pre" font-family="Sora" font-size="14.5386" font-weight="bold" letter-spacing="0em"><tspan x="264.232" y="128.394">Nasser Yousef Ali</tspan></text>
<path id="Union_6" fill-rule="evenodd" clip-rule="evenodd" d="M227.054 114.838V113.342C227.054 113.342 227.055 113.34 227.055 113.338C227.061 113.321 227.078 113.27 227.126 113.186C227.2 113.059 227.322 112.901 227.506 112.75C227.861 112.459 228.474 112.171 229.475 112.245C233.653 112.552 235.885 115.409 235.885 117.413V130.747C235.885 130.78 235.883 130.806 235.881 130.826C235.861 130.829 235.833 130.831 235.799 130.831H233.225C233.19 130.831 233.163 130.829 233.142 130.826C233.14 130.806 233.138 130.78 233.138 130.747V118.438C233.138 117.516 232.689 116.623 232.054 115.974C231.417 115.322 230.518 114.838 229.527 114.838H227.054ZM229.527 116.257H227.054V130.747C227.054 131.111 226.99 131.558 226.646 131.885C226.311 132.203 225.873 132.249 225.549 132.249H222.928C222.62 132.249 222.217 132.191 221.889 131.905C221.542 131.603 221.424 131.174 221.424 130.747V118.298C221.424 117.556 221.835 116.709 222.396 116.07C222.965 115.422 223.822 114.838 224.847 114.838H225.636V113.31C225.636 113.026 225.755 112.724 225.898 112.477C226.055 112.205 226.288 111.915 226.607 111.653C227.257 111.12 228.234 110.732 229.579 110.831C234.294 111.177 237.303 114.478 237.303 117.413V130.747C237.303 131.097 237.225 131.508 236.918 131.827C236.607 132.151 236.188 132.249 235.799 132.249H233.225C232.835 132.249 232.416 132.151 232.105 131.827C231.799 131.508 231.72 131.097 231.72 130.747V118.438C231.72 117.966 231.477 117.413 231.04 116.965C230.605 116.521 230.053 116.257 229.527 116.257ZM224.847 116.257H225.636V130.747C225.636 130.778 225.635 130.805 225.634 130.828C225.61 130.83 225.582 130.831 225.549 130.831H222.928C222.894 130.831 222.867 130.829 222.846 130.827C222.844 130.807 222.842 130.78 222.842 130.747V118.298C222.842 118.015 223.039 117.487 223.461 117.006C223.874 116.536 224.374 116.257 224.847 116.257ZM249.449 132.205V133.701C249.449 133.701 249.449 133.703 249.448 133.705C249.442 133.722 249.425 133.774 249.377 133.857C249.304 133.984 249.181 134.143 248.997 134.293C248.643 134.584 248.029 134.872 247.028 134.798C242.851 134.492 240.618 131.634 240.618 129.631V116.296C240.618 116.263 240.62 116.237 240.622 116.217C240.643 116.214 240.67 116.213 240.705 116.213H243.279C243.314 116.213 243.341 116.214 243.361 116.217C243.364 116.237 243.365 116.263 243.365 116.296V128.605C243.365 129.528 243.815 130.42 244.449 131.069C245.086 131.721 245.985 132.205 246.976 132.205H249.449ZM246.976 130.787H249.449V116.296C249.449 115.932 249.514 115.485 249.857 115.159C250.192 114.84 250.63 114.795 250.954 114.795H253.575C253.883 114.795 254.287 114.853 254.614 115.138C254.961 115.441 255.08 115.869 255.08 116.296V128.745C255.08 129.487 254.668 130.335 254.108 130.973C253.538 131.622 252.681 132.205 251.656 132.205H250.868V133.734C250.868 134.018 250.748 134.319 250.605 134.566C250.448 134.838 250.215 135.128 249.897 135.39C249.246 135.923 248.269 136.311 246.924 136.213C242.209 135.867 239.2 132.565 239.2 129.631V116.296C239.2 115.946 239.279 115.535 239.585 115.216C239.896 114.892 240.316 114.795 240.705 114.795H243.279C243.668 114.795 244.087 114.892 244.399 115.216C244.705 115.535 244.783 115.946 244.783 116.296V128.605C244.783 129.077 245.026 129.631 245.463 130.078C245.898 130.523 246.45 130.787 246.976 130.787ZM251.656 130.787H250.868V116.296C250.868 116.265 250.868 116.238 250.87 116.215C250.894 116.213 250.922 116.213 250.954 116.213H253.575C253.609 116.213 253.637 116.214 253.658 116.217C253.66 116.237 253.661 116.263 253.661 116.296V128.745C253.661 129.028 253.465 129.556 253.042 130.037C252.629 130.507 252.129 130.787 251.656 130.787Z" fill="white"/>
</g>
<g id="Clip path group_4">
<mask id="mask3_270_153" style="mask-type:luminance" maskUnits="userSpaceOnUse" x="156" y="580" width="303" height="91">
<g id="clip3">
<path id="Vector_81" d="M458.888 580.897H156V670.552H458.888V580.897Z" fill="white"/>
</g>
</mask>
<g mask="url(#mask3_270_153)">
<g id="component-menu_3">
<path id="Rectangle 426_5" d="M247.467 580.897H170.258C168.92 580.897 167.835 581.982 167.835 583.32V668.222C167.835 669.56 168.92 670.645 170.258 670.645H247.467C248.806 670.645 249.891 669.56 249.891 668.222V583.32C249.891 581.982 248.806 580.897 247.467 580.897Z" fill="#9C4FB4"/>
<text id="Transferir_3" fill="#EDEAEF" xml:space="preserve" style="white-space: pre" font-family="Source Sans Pro" font-size="11.8349" letter-spacing="0em"><tspan x="176.711" y="660.541">Transferir</tspan></text>
<path id="Rectangle 427_5" d="M432.882 580.897H355.672C354.334 580.897 353.249 581.982 353.249 583.32V668.222C353.249 669.56 354.334 670.645 355.672 670.645H432.882C434.22 670.645 435.305 669.56 435.305 668.222V583.32C435.305 581.982 434.22 580.897 432.882 580.897Z" fill="#9C4FB4"/>
<text id="Cobrar_3" fill="#EDEAEF" xml:space="preserve" style="white-space: pre" font-family="Source Sans Pro" font-size="11.8349" letter-spacing="0em"><tspan x="361.964" y="660.66">Cobrar</tspan></text>
<path id="Rectangle 428_6" d="M340.174 580.897H262.965C261.627 580.897 260.542 581.982 260.542 583.32V668.222C260.542 669.56 261.627 670.645 262.965 670.645H340.174C341.513 670.645 342.598 669.56 342.598 668.222V583.32C342.598 581.982 341.513 580.897 340.174 580.897Z" fill="#9C4FB4"/>
<text id="Depositar_3" fill="#EDEAEF" xml:space="preserve" style="white-space: pre" font-family="Source Sans Pro" font-size="11.8349" letter-spacing="0em"><tspan x="269.418" y="660.541">Depositar </tspan></text>
<g id="Group 328_5">
<g id="Group 323_5">
<path id="Vector_81_2" d="M186.485 595.691V606.54" stroke="#EDEAEF" stroke-width="0.807701" stroke-linecap="round" stroke-linejoin="round"/>
<path id="Vector_82" d="M188.944 597.663H185.256C184.8 597.663 184.362 597.845 184.039 598.169C183.717 598.493 183.535 598.932 183.535 599.389C183.535 599.847 183.717 600.286 184.039 600.61C184.362 600.933 184.8 601.115 185.256 601.115H187.715C188.171 601.115 188.609 601.297 188.932 601.621C189.254 601.944 189.436 602.383 189.436 602.841C189.436 603.299 189.254 603.738 188.932 604.062C188.609 604.385 188.171 604.567 187.715 604.567H183.535" stroke="#EDEAEF" stroke-width="0.807701" stroke-linecap="round" stroke-linejoin="round"/>
</g>
<path id="Vector_83" d="M186.485 591.746C181.054 591.746 176.651 596.161 176.651 601.608C176.651 607.055 181.054 611.471 186.485 611.471C191.917 611.471 196.319 607.055 196.319 601.608C196.319 600.394 196.101 599.231 195.7 598.157" stroke="#EDEAEF" stroke-width="0.807701" stroke-linecap="round" stroke-linejoin="round"/>
<g id="Group 324_6">
<path id="Vector_84" d="M197.303 592.732L193.369 588.787L189.436 592.732" stroke="#EDEAEF" stroke-width="0.807701" stroke-linecap="round" stroke-linejoin="round"/>
<path id="Vector_85" d="M193.369 596.677V588.787" stroke="#EDEAEF" stroke-width="0.807701" stroke-linecap="round" stroke-linejoin="round"/>
</g>
</g>
<g id="Group 329_5">
<g id="Group 325_6">
<path id="Vector_86" d="M278.925 595.691V606.54" stroke="#EDEAEF" stroke-width="0.807701" stroke-linecap="round" stroke-linejoin="round"/>
<path id="Vector_87" d="M281.384 597.663H277.696C277.24 597.663 276.802 597.845 276.479 598.169C276.156 598.493 275.975 598.932 275.975 599.389C275.975 599.847 276.156 600.286 276.479 600.61C276.802 600.933 277.24 601.115 277.696 601.115H280.155C280.611 601.115 281.049 601.297 281.372 601.621C281.694 601.944 281.876 602.383 281.876 602.841C281.876 603.299 281.694 603.738 281.372 604.062C281.049 604.385 280.611 604.567 280.155 604.567H275.975" stroke="#EDEAEF" stroke-width="0.807701" stroke-linecap="round" stroke-linejoin="round"/>
</g>
<path id="Vector_88" d="M278.925 591.746C273.494 591.746 269.091 596.161 269.091 601.608C269.091 607.055 273.494 611.471 278.925 611.471C284.356 611.471 288.759 607.055 288.759 601.608C288.759 600.394 288.54 599.231 288.14 598.157" stroke="#EDEAEF" stroke-width="0.807701" stroke-linecap="round" stroke-linejoin="round"/>
<g id="Group 327_5">
<path id="Vector_89" d="M281.876 592.732L285.809 596.677L289.743 592.732" stroke="#EDEAEF" stroke-width="0.807701" stroke-linecap="round" stroke-linejoin="round"/>
<path id="Vector_90" d="M285.809 588.787V596.677" stroke="#EDEAEF" stroke-width="0.807701" stroke-linecap="round" stroke-linejoin="round"/>
</g>
</g>
<g id="Group 330_4">
<g id="Group 326_5">
<path id="Vector_91" d="M371.589 594.705V602.759" stroke="#EDEAEF" stroke-width="0.807701" stroke-linecap="round" stroke-linejoin="round"/>
<path id="Vector_92" d="M373.414 596.169H370.676C370.337 596.169 370.012 596.304 369.773 596.544C369.533 596.785 369.398 597.111 369.398 597.45C369.398 597.79 369.533 598.116 369.773 598.357C370.012 598.597 370.337 598.732 370.676 598.732H372.501C372.84 598.732 373.165 598.867 373.405 599.107C373.644 599.347 373.779 599.673 373.779 600.013C373.779 600.353 373.644 600.679 373.405 600.919C373.165 601.16 372.84 601.295 372.501 601.295H369.398" stroke="#EDEAEF" stroke-width="0.807701" stroke-linecap="round" stroke-linejoin="round"/>
</g>
<path id="Vector_93" d="M380.216 603.581C380.216 604.104 380.008 604.606 379.639 604.976C379.271 605.346 378.77 605.553 378.249 605.553H366.448L362.514 609.498V593.718C362.514 593.195 362.721 592.694 363.09 592.324C363.459 591.954 363.959 591.746 364.481 591.746H378.249C378.77 591.746 379.271 591.954 379.639 592.324C380.008 592.694 380.216 593.195 380.216 593.718V603.581Z" stroke="#EDEAEF" stroke-width="0.807701" stroke-linecap="round" stroke-linejoin="round"/>
</g>
<path id="Rectangle 429_5" d="M460.299 580.897H448.379C447.041 580.897 445.956 581.982 445.956 583.32V668.222C445.956 669.56 447.041 670.645 448.379 670.645H460.299C461.637 670.645 462.722 669.56 462.722 668.222V583.32C462.722 581.982 461.637 580.897 460.299 580.897Z" fill="#9C4FB4"/>
</g>
</g>
</g>
<path id="Rectangle 430_2" d="M354.737 699.102H261.044C259.682 699.102 258.578 700.206 258.578 701.568C258.578 702.929 259.682 704.033 261.044 704.033H354.737C356.099 704.033 357.203 702.929 357.203 701.568C357.203 700.206 356.099 699.102 354.737 699.102Z" fill="#EDEAEF"/>
</g>
<g id="fignu2-icon1" class="fignu2-icon1">
<g id="Rectangle 890" filter="url(#filter2_dddd_270_153)">
<path id="Vector_94" d="M542.692 543H467.308C449.465 543 435 557.465 435 575.308V650.692C435 668.535 449.465 683 467.308 683H542.692C560.535 683 575 668.535 575 650.692V575.308C575 557.465 560.535 543 542.692 543Z" fill="#FBF8FC"/>
</g>
<path id="Vector_94_2" d="M529 596L496 629L481 614" stroke="url(#paint7_linear_270_153)" stroke-width="5.96174" stroke-linecap="round" stroke-linejoin="round"/>
</g>
<g id="fignu2-icon3" class="fignu2-icon3">
<g id="Rectangle 884" filter="url(#filter3_dddd_270_153)">
<path id="Vector_95" d="M542.692 108H467.308C449.465 108 435 122.465 435 140.308V215.692C435 233.535 449.465 248 467.308 248H542.692C560.535 248 575 233.535 575 215.692V140.308C575 122.465 560.535 108 542.692 108Z" fill="#FBF8FC"/>
</g>
<g id="Group 289">
<path id="Vector_97" d="M505 145V211" stroke="url(#paint8_linear_270_153)" stroke-width="5.96174" stroke-linecap="round" stroke-linejoin="round"/>
<path id="Vector_98" d="M520 157H497.5C494.715 157 492.045 158.106 490.075 160.075C488.106 162.044 487 164.715 487 167.5C487 170.285 488.106 172.955 490.075 174.924C492.045 176.894 494.715 178 497.5 178H512.5C515.285 178 517.955 179.106 519.925 181.075C521.894 183.044 523 185.715 523 188.5C523 191.285 521.894 193.955 519.925 195.924C517.955 197.894 515.285 199 512.5 199H487" stroke="url(#paint9_linear_270_153)" stroke-width="5.96174" stroke-linecap="round" stroke-linejoin="round"/>
</g>
</g>
<g id="fignu2-icon5" class="fignu2-icon5">
<g id="Rectangle 879" filter="url(#filter4_dddd_270_153)">
<path id="Vector_96" d="M141.692 188H66.3077C48.4647 188 34 202.465 34 220.308V295.692C34 313.535 48.4647 328 66.3077 328H141.692C159.535 328 174 313.535 174 295.692V220.308C174 202.465 159.535 188 141.692 188Z" fill="#FBF8FC"/>
</g>
<path id="Vector_101" d="M104 288C104 288 128 276 128 258V237L104 228L80 237V258C80 276 104 288 104 288Z" stroke="url(#paint10_linear_270_153)" stroke-width="5.96174" stroke-linecap="round" stroke-linejoin="round"/>
</g>
</g>
</g>
</g>
</g>
<defs>
<filter id="filter0_d_270_153" x="463" y="177" width="13.2839" height="83.071" filterUnits="userSpaceOnUse" color-interpolation-filters="sRGB">
<feFlood flood-opacity="0" result="BackgroundImageFix"/>
<feColorMatrix in="SourceAlpha" type="matrix" values="0 0 0 0 0 0 0 0 0 0 0 0 0 0 0 0 0 0 127 0" result="hardAlpha"/>
<feOffset dx="-2"/>
<feGaussianBlur stdDeviation="2.5"/>
<feColorMatrix type="matrix" values="0 0 0 0 0 0 0 0 0 0 0 0 0 0 0 0 0 0 0.12 0"/>
<feBlend mode="normal" in2="BackgroundImageFix" result="effect1_dropShadow_270_153"/>
<feBlend mode="normal" in="SourceGraphic" in2="effect1_dropShadow_270_153" result="shape"/>
</filter>
<filter id="filter1_dddd_270_153" x="64" y="14" width="488" height="846" filterUnits="userSpaceOnUse" color-interpolation-filters="sRGB">
<feFlood flood-opacity="0" result="BackgroundImageFix"/>
<feColorMatrix in="SourceAlpha" type="matrix" values="0 0 0 0 0 0 0 0 0 0 0 0 0 0 0 0 0 0 127 0" result="hardAlpha"/>
<feOffset dy="2.30969"/>
<feGaussianBlur stdDeviation="1.81152"/>
<feColorMatrix type="matrix" values="0 0 0 0 0.662745 0 0 0 0 0.313726 0 0 0 0 0.768627 0 0 0 0.0278729 0"/>
<feBlend mode="normal" in2="BackgroundImageFix" result="effect1_dropShadow_270_153"/>
<feColorMatrix in="SourceAlpha" type="matrix" values="0 0 0 0 0 0 0 0 0 0 0 0 0 0 0 0 0 0 127 0" result="hardAlpha"/>
<feOffset dy="6.38599"/>
<feGaussianBlur stdDeviation="5.00862"/>
<feColorMatrix type="matrix" values="0 0 0 0 0.662745 0 0 0 0 0.313726 0 0 0 0 0.768627 0 0 0 0.04 0"/>
<feBlend mode="normal" in2="effect1_dropShadow_270_153" result="effect2_dropShadow_270_153"/>
<feColorMatrix in="SourceAlpha" type="matrix" values="0 0 0 0 0 0 0 0 0 0 0 0 0 0 0 0 0 0 127 0" result="hardAlpha"/>
<feOffset dy="15.375"/>
<feGaussianBlur stdDeviation="12.0588"/>
<feColorMatrix type="matrix" values="0 0 0 0 0.662745 0 0 0 0 0.313726 0 0 0 0 0.768627 0 0 0 0.0521271 0"/>
<feBlend mode="normal" in2="effect2_dropShadow_270_153" result="effect3_dropShadow_270_153"/>
<feColorMatrix in="SourceAlpha" type="matrix" values="0 0 0 0 0 0 0 0 0 0 0 0 0 0 0 0 0 0 127 0" result="hardAlpha"/>
<feOffset dy="51"/>
<feGaussianBlur stdDeviation="40"/>
<feColorMatrix type="matrix" values="0 0 0 0 0.662745 0 0 0 0 0.313726 0 0 0 0 0.768627 0 0 0 0.08 0"/>
<feBlend mode="normal" in2="effect3_dropShadow_270_153" result="effect4_dropShadow_270_153"/>
<feBlend mode="normal" in="SourceGraphic" in2="effect4_dropShadow_270_153" result="shape"/>
</filter>
<filter id="filter2_dddd_270_153" x="355" y="514" width="300" height="300" filterUnits="userSpaceOnUse" color-interpolation-filters="sRGB">
<feFlood flood-opacity="0" result="BackgroundImageFix"/>
<feColorMatrix in="SourceAlpha" type="matrix" values="0 0 0 0 0 0 0 0 0 0 0 0 0 0 0 0 0 0 127 0" result="hardAlpha"/>
<feOffset dy="2.30969"/>
<feGaussianBlur stdDeviation="1.81152"/>
<feColorMatrix type="matrix" values="0 0 0 0 0.662745 0 0 0 0 0.313726 0 0 0 0 0.768627 0 0 0 0.0278729 0"/>
<feBlend mode="normal" in2="BackgroundImageFix" result="effect1_dropShadow_270_153"/>
<feColorMatrix in="SourceAlpha" type="matrix" values="0 0 0 0 0 0 0 0 0 0 0 0 0 0 0 0 0 0 127 0" result="hardAlpha"/>
<feOffset dy="6.38599"/>
<feGaussianBlur stdDeviation="5.00862"/>
<feColorMatrix type="matrix" values="0 0 0 0 0.662745 0 0 0 0 0.313726 0 0 0 0 0.768627 0 0 0 0.04 0"/>
<feBlend mode="normal" in2="effect1_dropShadow_270_153" result="effect2_dropShadow_270_153"/>
<feColorMatrix in="SourceAlpha" type="matrix" values="0 0 0 0 0 0 0 0 0 0 0 0 0 0 0 0 0 0 127 0" result="hardAlpha"/>
<feOffset dy="15.375"/>
<feGaussianBlur stdDeviation="12.0588"/>
<feColorMatrix type="matrix" values="0 0 0 0 0.662745 0 0 0 0 0.313726 0 0 0 0 0.768627 0 0 0 0.0521271 0"/>
<feBlend mode="normal" in2="effect2_dropShadow_270_153" result="effect3_dropShadow_270_153"/>
<feColorMatrix in="SourceAlpha" type="matrix" values="0 0 0 0 0 0 0 0 0 0 0 0 0 0 0 0 0 0 127 0" result="hardAlpha"/>
<feOffset dy="51"/>
<feGaussianBlur stdDeviation="40"/>
<feColorMatrix type="matrix" values="0 0 0 0 0.662745 0 0 0 0 0.313726 0 0 0 0 0.768627 0 0 0 0.08 0"/>
<feBlend mode="normal" in2="effect3_dropShadow_270_153" result="effect4_dropShadow_270_153"/>
<feBlend mode="normal" in="SourceGraphic" in2="effect4_dropShadow_270_153" result="shape"/>
</filter>
<filter id="filter3_dddd_270_153" x="355" y="79" width="300" height="300" filterUnits="userSpaceOnUse" color-interpolation-filters="sRGB">
<feFlood flood-opacity="0" result="BackgroundImageFix"/>
<feColorMatrix in="SourceAlpha" type="matrix" values="0 0 0 0 0 0 0 0 0 0 0 0 0 0 0 0 0 0 127 0" result="hardAlpha"/>
<feOffset dy="2.30969"/>
<feGaussianBlur stdDeviation="1.81152"/>
<feColorMatrix type="matrix" values="0 0 0 0 0.662745 0 0 0 0 0.313726 0 0 0 0 0.768627 0 0 0 0.0278729 0"/>
<feBlend mode="normal" in2="BackgroundImageFix" result="effect1_dropShadow_270_153"/>
<feColorMatrix in="SourceAlpha" type="matrix" values="0 0 0 0 0 0 0 0 0 0 0 0 0 0 0 0 0 0 127 0" result="hardAlpha"/>
<feOffset dy="6.38599"/>
<feGaussianBlur stdDeviation="5.00862"/>
<feColorMatrix type="matrix" values="0 0 0 0 0.662745 0 0 0 0 0.313726 0 0 0 0 0.768627 0 0 0 0.04 0"/>
<feBlend mode="normal" in2="effect1_dropShadow_270_153" result="effect2_dropShadow_270_153"/>
<feColorMatrix in="SourceAlpha" type="matrix" values="0 0 0 0 0 0 0 0 0 0 0 0 0 0 0 0 0 0 127 0" result="hardAlpha"/>
<feOffset dy="15.375"/>
<feGaussianBlur stdDeviation="12.0588"/>
<feColorMatrix type="matrix" values="0 0 0 0 0.662745 0 0 0 0 0.313726 0 0 0 0 0.768627 0 0 0 0.0521271 0"/>
<feBlend mode="normal" in2="effect2_dropShadow_270_153" result="effect3_dropShadow_270_153"/>
<feColorMatrix in="SourceAlpha" type="matrix" values="0 0 0 0 0 0 0 0 0 0 0 0 0 0 0 0 0 0 127 0" result="hardAlpha"/>
<feOffset dy="51"/>
<feGaussianBlur stdDeviation="40"/>
<feColorMatrix type="matrix" values="0 0 0 0 0.662745 0 0 0 0 0.313726 0 0 0 0 0.768627 0 0 0 0.08 0"/>
<feBlend mode="normal" in2="effect3_dropShadow_270_153" result="effect4_dropShadow_270_153"/>
<feBlend mode="normal" in="SourceGraphic" in2="effect4_dropShadow_270_153" result="shape"/>
</filter>
<filter id="filter4_dddd_270_153" x="-46" y="159" width="300" height="300" filterUnits="userSpaceOnUse" color-interpolation-filters="sRGB">
<feFlood flood-opacity="0" result="BackgroundImageFix"/>
<feColorMatrix in="SourceAlpha" type="matrix" values="0 0 0 0 0 0 0 0 0 0 0 0 0 0 0 0 0 0 127 0" result="hardAlpha"/>
<feOffset dy="2.30969"/>
<feGaussianBlur stdDeviation="1.81152"/>
<feColorMatrix type="matrix" values="0 0 0 0 0.662745 0 0 0 0 0.313726 0 0 0 0 0.768627 0 0 0 0.0278729 0"/>
<feBlend mode="normal" in2="BackgroundImageFix" result="effect1_dropShadow_270_153"/>
<feColorMatrix in="SourceAlpha" type="matrix" values="0 0 0 0 0 0 0 0 0 0 0 0 0 0 0 0 0 0 127 0" result="hardAlpha"/>
<feOffset dy="6.38599"/>
<feGaussianBlur stdDeviation="5.00862"/>
<feColorMatrix type="matrix" values="0 0 0 0 0.662745 0 0 0 0 0.313726 0 0 0 0 0.768627 0 0 0 0.04 0"/>
<feBlend mode="normal" in2="effect1_dropShadow_270_153" result="effect2_dropShadow_270_153"/>
<feColorMatrix in="SourceAlpha" type="matrix" values="0 0 0 0 0 0 0 0 0 0 0 0 0 0 0 0 0 0 127 0" result="hardAlpha"/>
<feOffset dy="15.375"/>
<feGaussianBlur stdDeviation="12.0588"/>
<feColorMatrix type="matrix" values="0 0 0 0 0.662745 0 0 0 0 0.313726 0 0 0 0 0.768627 0 0 0 0.0521271 0"/>
<feBlend mode="normal" in2="effect2_dropShadow_270_153" result="effect3_dropShadow_270_153"/>
<feColorMatrix in="SourceAlpha" type="matrix" values="0 0 0 0 0 0 0 0 0 0 0 0 0 0 0 0 0 0 127 0" result="hardAlpha"/>
<feOffset dy="51"/>
<feGaussianBlur stdDeviation="40"/>
<feColorMatrix type="matrix" values="0 0 0 0 0.662745 0 0 0 0 0.313726 0 0 0 0 0.768627 0 0 0 0.08 0"/>
<feBlend mode="normal" in2="effect3_dropShadow_270_153" result="effect4_dropShadow_270_153"/>
<feBlend mode="normal" in="SourceGraphic" in2="effect4_dropShadow_270_153" result="shape"/>
</filter>
<linearGradient id="paint0_linear_270_153" x1="-nan" y1="-nan" x2="-nan" y2="-nan" gradientUnits="userSpaceOnUse">
<stop stop-color="#82269E"/>
<stop offset="1" stop-color="#82269E" stop-opacity="0"/>
</linearGradient>
<linearGradient id="paint1_linear_270_153" x1="414.26" y1="143.045" x2="48.1891" y2="337.893" gradientUnits="userSpaceOnUse">
<stop stop-color="#A950C4"/>
<stop offset="1" stop-color="#82269E"/>
</linearGradient>
<linearGradient id="paint2_linear_270_153" x1="314.663" y1="284.238" x2="309.186" y2="294.31" gradientUnits="userSpaceOnUse">
<stop stop-color="#A950C4"/>
<stop offset="1" stop-color="#82269E"/>
</linearGradient>
<linearGradient id="paint3_linear_270_153" x1="316.021" y1="278.641" x2="314.665" y2="284.871" gradientUnits="userSpaceOnUse">
<stop stop-color="#A950C4"/>
<stop offset="1" stop-color="#82269E"/>
</linearGradient>
<linearGradient id="paint4_linear_270_153" x1="-nan" y1="-nan" x2="-nan" y2="-nan" gradientUnits="userSpaceOnUse">
<stop stop-color="#A950C4"/>
<stop offset="1" stop-color="#82269E"/>
</linearGradient>
<linearGradient id="paint5_linear_270_153" x1="308.168" y1="273.71" x2="305.243" y2="278.417" gradientUnits="userSpaceOnUse">
<stop stop-color="#A950C4"/>
<stop offset="1" stop-color="#82269E"/>
</linearGradient>
<linearGradient id="paint6_linear_270_153" x1="315.052" y1="273.71" x2="312.127" y2="278.417" gradientUnits="userSpaceOnUse">
<stop stop-color="#A950C4"/>
<stop offset="1" stop-color="#82269E"/>
</linearGradient>
<linearGradient id="paint7_linear_270_153" x1="521.56" y1="600.455" x2="502.349" y2="632.664" gradientUnits="userSpaceOnUse">
<stop stop-color="#A950C4"/>
<stop offset="1" stop-color="#82269E"/>
</linearGradient>
<linearGradient id="paint8_linear_270_153" x1="-nan" y1="-nan" x2="-nan" y2="-nan" gradientUnits="userSpaceOnUse">
<stop stop-color="#A950C4"/>
<stop offset="1" stop-color="#82269E"/>
</linearGradient>
<linearGradient id="paint9_linear_270_153" x1="517.42" y1="162.67" x2="489.634" y2="190.123" gradientUnits="userSpaceOnUse">
<stop stop-color="#A950C4"/>
<stop offset="1" stop-color="#82269E"/>
</linearGradient>
<linearGradient id="paint10_linear_270_153" x1="120.56" y1="236.1" x2="80.9927" y2="272.586" gradientUnits="userSpaceOnUse">
<stop stop-color="#A950C4"/>
<stop offset="1" stop-color="#82269E"/>
</linearGradient>
<clipPath id="clip0_270_153">
<rect width="606" height="928" fill="white"/>
</clipPath>
</defs>
</svg>
