<svg width="720" height="456" viewBox="0 0 720 456" fill="none" xmlns="http://www.w3.org/2000/svg">
<g clip-path="url(#clip0_22_9)">
<path d="M0 0H720V456H0V0Z" fill="url(#paint0_linear_22_9)"/>
<path d="M221.07 359V342.21H224.267V359H221.07ZM223.807 359V356.24H231.42V359H223.807ZM223.807 351.847V349.087H230.822V351.847H223.807ZM223.807 344.97V342.21H231.236V344.97H223.807ZM234.771 359V342.21H238.037V359H234.771ZM237.577 359V356.125H244.822V359H237.577ZM247.53 359V342.21H250.796V359H247.53ZM258.758 359L253.399 342.21H256.78L261.219 356.746L260.253 356.286H262.737L261.748 356.746L265.842 342.21H269.108L264.14 359H258.758ZM271.742 359V342.21H274.939V359H271.742ZM274.479 359V356.24H282.092V359H274.479ZM274.479 351.847V349.087H281.494V351.847H274.479ZM274.479 344.97V342.21H281.908V344.97H274.479ZM285.443 359V342.21H288.709V359H285.443ZM288.249 359V356.125H295.494V359H288.249ZM299.694 359V344.625H302.96V359H299.694ZM294.841 345.085V342.21H307.813V345.085H294.841ZM317.814 359.437C316.296 359.437 314.978 359.169 313.858 358.632C312.754 358.095 311.834 357.398 311.098 356.539C310.378 355.665 309.833 354.73 309.465 353.733C309.113 352.721 308.936 351.747 308.936 350.812V350.306C308.936 349.279 309.12 348.259 309.488 347.247C309.856 346.22 310.408 345.292 311.144 344.464C311.896 343.636 312.823 342.977 313.927 342.486C315.031 341.98 316.327 341.727 317.814 341.727C319.286 341.727 320.574 341.98 321.678 342.486C322.782 342.977 323.702 343.636 324.438 344.464C325.19 345.292 325.749 346.22 326.117 347.247C326.485 348.259 326.669 349.279 326.669 350.306V350.812C326.669 351.747 326.485 352.721 326.117 353.733C325.765 354.73 325.22 355.665 324.484 356.539C323.764 357.398 322.844 358.095 321.724 358.632C320.62 359.169 319.317 359.437 317.814 359.437ZM317.814 356.401C318.673 356.401 319.44 356.248 320.114 355.941C320.804 355.634 321.387 355.213 321.862 354.676C322.353 354.124 322.721 353.503 322.966 352.813C323.227 352.108 323.357 351.364 323.357 350.582C323.357 349.739 323.227 348.964 322.966 348.259C322.721 347.554 322.353 346.94 321.862 346.419C321.387 345.898 320.804 345.491 320.114 345.2C319.424 344.909 318.658 344.763 317.814 344.763C316.956 344.763 316.181 344.909 315.491 345.2C314.801 345.491 314.211 345.898 313.72 346.419C313.245 346.94 312.877 347.554 312.616 348.259C312.371 348.964 312.248 349.739 312.248 350.582C312.248 351.364 312.371 352.108 312.616 352.813C312.877 353.503 313.245 354.124 313.72 354.676C314.211 355.213 314.801 355.634 315.491 355.941C316.181 356.248 316.956 356.401 317.814 356.401ZM329.826 359V342.21H335.185L342.246 356.286H343.005L342.545 356.7V342.21H345.627V359H340.245L333.184 344.924H332.402L332.862 344.51V359H329.826ZM354.735 359V342.21H358.001V359H354.735ZM357.541 352.008V349.248L364.257 349.225V351.985L357.541 352.008ZM357.541 344.97V342.21H364.579V344.97H357.541ZM367.605 359V342.21H370.802V359H367.605ZM370.342 359V356.24H377.955V359H370.342ZM370.342 351.847V349.087H377.357V351.847H370.342ZM370.342 344.97V342.21H377.771V344.97H370.342ZM381.306 359V342.095H384.572V359H381.306ZM391.564 359L386.412 351.686H390.069L395.382 359H391.564ZM383.606 353.388V350.743H387.884C388.482 350.743 388.996 350.62 389.425 350.375C389.87 350.13 390.215 349.785 390.46 349.34C390.706 348.895 390.828 348.389 390.828 347.822C390.828 347.239 390.706 346.726 390.46 346.281C390.215 345.836 389.87 345.491 389.425 345.246C388.996 345.001 388.482 344.878 387.884 344.878H383.606V342.095H387.539C388.889 342.095 390.054 342.294 391.035 342.693C392.032 343.092 392.799 343.697 393.335 344.51C393.872 345.323 394.14 346.342 394.14 347.569V347.937C394.14 349.179 393.864 350.199 393.312 350.996C392.776 351.793 392.017 352.391 391.035 352.79C390.054 353.189 388.889 353.388 387.539 353.388H383.606ZM397.86 359V342.095H401.126V359H397.86ZM408.118 359L402.966 351.686H406.623L411.936 359H408.118ZM400.16 353.388V350.743H404.438C405.036 350.743 405.55 350.62 405.979 350.375C406.424 350.13 406.769 349.785 407.014 349.34C407.259 348.895 407.382 348.389 407.382 347.822C407.382 347.239 407.259 346.726 407.014 346.281C406.769 345.836 406.424 345.491 405.979 345.246C405.55 345.001 405.036 344.878 404.438 344.878H400.16V342.095H404.093C405.442 342.095 406.608 342.294 407.589 342.693C408.586 343.092 409.352 343.697 409.889 344.51C410.426 345.323 410.694 346.342 410.694 347.569V347.937C410.694 349.179 410.418 350.199 409.866 350.996C409.329 351.793 408.57 352.391 407.589 352.79C406.608 353.189 405.442 353.388 404.093 353.388H400.16ZM414.414 359V342.21H417.611V359H414.414ZM417.151 359V356.24H424.764V359H417.151ZM417.151 351.847V349.087H424.166V351.847H417.151ZM417.151 344.97V342.21H424.58V344.97H417.151ZM428.161 359V342.21H431.427V359H428.161ZM435.617 359V342.095H438.883V359H435.617ZM445.875 359L440.723 351.686H444.38L449.693 359H445.875ZM437.917 353.388V350.743H442.195C442.793 350.743 443.307 350.62 443.736 350.375C444.181 350.13 444.526 349.785 444.771 349.34C445.016 348.895 445.139 348.389 445.139 347.822C445.139 347.239 445.016 346.726 444.771 346.281C444.526 345.836 444.181 345.491 443.736 345.246C443.307 345.001 442.793 344.878 442.195 344.878H437.917V342.095H441.85C443.199 342.095 444.365 342.294 445.346 342.693C446.343 343.092 447.109 343.697 447.646 344.51C448.183 345.323 448.451 346.342 448.451 347.569V347.937C448.451 349.179 448.175 350.199 447.623 350.996C447.086 351.793 446.327 352.391 445.346 352.79C444.365 353.189 443.199 353.388 441.85 353.388H437.917ZM450.515 359L456.242 342.21H461.578L467.466 359H464.108L459.117 344.441L460.29 344.947H457.415L458.611 344.441L453.781 359H450.515ZM454.517 354.538L455.552 351.778H462.36L463.372 354.538H454.517Z" fill="white"/>
<circle cx="580" cy="86" r="46" fill="#E71924"/>
<circle cx="637" cy="86" r="46" fill="#F99F19"/>
<path fill-rule="evenodd" clip-rule="evenodd" d="M608.5 122.22C619.159 113.795 626 100.751 626 86.1099C626 71.4684 619.159 58.4246 608.5 50C597.841 58.4246 591 71.4684 591 86.1099C591 100.751 597.841 113.795 608.5 122.22Z" fill="#F26520"/>
<rect x="78.5" y="155.5" width="98" height="72" rx="9.5" fill="#CCC8CF" stroke="black"/>
<path d="M108 200C111.811 193.053 111.832 188.108 108 177.5M175.5 179.5H146.5C143.792 187.506 144.06 191.994 146.5 200" stroke="black"/>
<path d="M79 178H108.232C109.566 163.625 121.336 157.113 125.368 157.113C128.896 156.141 139.738 161.554 142 168.771" stroke="black"/>
<path d="M79.5 200H108C113.867 219.135 118.153 224.527 127.5 225C135.824 225.389 140.049 219.273 147 200H175.5" stroke="black"/>
<circle cx="127.5" cy="164.5" r="1.5" fill="black"/>
<path d="M227.5 171.5C235.257 186.572 234.632 195.25 227.5 211M219.5 175.5C225.958 188.311 225.901 195.203 219.5 207" stroke="white" stroke-width="5" stroke-linecap="round" stroke-linejoin="round"/>
<path d="M212.5 179.5C216.794 189.365 216.447 194.33 212.5 202.5" stroke="white" stroke-width="5" stroke-linecap="round" stroke-linejoin="round"/>
<path d="M206 185C208.319 190.113 207.934 192.766 206 197.5" stroke="white" stroke-width="5" stroke-linecap="round" stroke-linejoin="round"/>
<path d="M102.293 301.165C98.2695 301.724 95.3112 303.655 93.9323 306.628C93.105 308.394 92.9796 309.131 92.9796 312.167L92.9922 314.911L91.6008 315.064C86.2231 315.674 82.0238 317.44 79.943 319.993C79.078 321.061 78.7145 321.772 78.3259 323.131L78 324.25V346.915C78 369.186 78 369.58 78.2507 370.241C78.6017 371.181 79.1282 371.791 80.0307 372.236L80.7954 372.629H86.3986H92.0019L92.7665 372.236C93.6189 371.816 94.0827 371.333 94.4713 370.47L94.7346 369.898L94.7722 343.18L94.7972 316.474H97.0285C100.877 316.474 107.846 317.033 109.15 317.452C111.482 318.189 113.212 320.273 113.976 323.297C114.54 325.52 114.528 325.063 114.59 348.109L114.666 370.152L114.941 370.66C115.255 371.257 115.994 371.994 116.609 372.324C117.01 372.553 117.461 372.566 122.425 372.604C127.176 372.629 127.865 372.617 128.429 372.426C129.169 372.185 130.046 371.41 130.435 370.66L130.711 370.152L130.723 354.589C130.723 346.026 130.698 334.451 130.661 328.861L130.585 318.698L130.234 317.681C127.665 310.3 119.166 303.503 110.103 301.597C107.157 300.987 104.65 300.847 102.293 301.165ZM107.947 302.956C112.171 303.579 116.145 305.141 119.742 307.581C121.259 308.623 122.249 309.436 123.678 310.859C126.223 313.387 127.84 315.826 128.655 318.316L128.943 319.206L129.031 344.234C129.106 361.093 129.094 369.39 129.006 369.669C128.843 370.19 128.141 370.813 127.615 370.914C127.389 370.952 125.02 370.978 122.35 370.952C117.687 370.914 117.486 370.901 117.16 370.647C116.972 370.508 116.696 370.228 116.558 370.038C116.295 369.695 116.295 369.656 116.22 347.499C116.145 323.17 116.195 324.732 115.405 322.166C114.415 318.952 112.284 316.601 109.589 315.788C108.235 315.369 103.183 314.937 98.8587 314.861L94.8223 314.784L94.7596 314.136C94.4588 311.519 94.5591 309.918 95.1232 308.229C95.5368 306.984 96.4143 305.662 97.2918 304.964C98.069 304.328 99.686 303.49 100.563 303.261C102.494 302.74 105.628 302.613 107.947 302.956ZM93.0423 343.116C93.0423 369.491 93.0423 369.644 92.7916 370.063C92.6412 370.304 92.3153 370.584 92.0019 370.724C91.513 370.952 91.137 370.978 86.3986 370.978C81.6603 370.978 81.2842 370.952 80.7954 370.724C80.482 370.584 80.1561 370.304 80.0056 370.063C79.7549 369.644 79.7549 369.542 79.78 346.648L79.8176 323.652L80.1059 322.954C81.56 319.46 85.3206 317.554 92.4782 316.69C92.6913 316.665 92.8919 316.627 92.9546 316.614C93.0047 316.614 93.0423 328.531 93.0423 343.116Z" fill="white"/>
<path d="M145.417 316.196C145.217 316.298 144.941 316.489 144.803 316.603C144.201 317.149 144.227 315.98 144.227 342.826V368.019L144.527 369.353C146.094 376.366 150.532 382.033 156.837 385.056C160.61 386.873 164.496 387.712 170.425 387.978C173.296 388.105 175.452 387.674 177.219 386.619C180.529 384.65 182.083 381.321 182.133 376.112L182.146 374.181L182.522 374.13C182.722 374.092 183.487 374.003 184.214 373.927C190.344 373.254 194.706 370.941 196.411 367.46L196.937 366.393L196.975 342.038L197 317.696L196.712 317.137C196.511 316.755 196.248 316.489 195.872 316.285L195.333 315.993H188.652C184.252 315.993 181.857 316.044 181.619 316.133C181.093 316.336 180.466 317.009 180.328 317.518C180.253 317.797 180.19 328.266 180.178 345.252L180.14 372.529H178.636C175.226 372.529 169.297 371.97 167.73 371.5C164.258 370.459 161.701 367.613 160.836 363.827C160.723 363.331 160.585 362.162 160.535 361.222C160.472 360.282 160.41 350.042 160.397 338.481C160.385 324.073 160.334 317.391 160.247 317.2C160.171 317.06 159.996 316.806 159.845 316.654C159.269 315.993 159.219 315.993 152.262 315.993C146.646 315.993 145.743 316.018 145.417 316.196ZM158.529 317.772C158.767 317.912 158.767 318.28 158.767 339.599C158.767 353.485 158.818 361.692 158.893 362.429C159.469 367.587 162.202 371.259 166.777 372.999C168.257 373.558 172.569 374.041 177.194 374.168L180.391 374.245L180.378 376.468C180.353 378.412 180.316 378.844 180.04 379.924C179.576 381.702 178.962 382.82 177.834 383.964C176.718 385.069 175.74 385.615 174.086 386.009C173.095 386.263 172.757 386.276 170.3 386.212C168.821 386.174 166.903 386.047 166.038 385.933C155.709 384.574 148.94 378.983 146.32 369.671L145.919 368.273L145.881 343.118C145.856 319.512 145.869 317.95 146.069 317.797C146.345 317.594 158.153 317.568 158.529 317.772ZM195.095 317.797C195.207 317.912 195.245 323.451 195.245 341.962V365.986L194.894 366.749C193.503 369.722 188.99 371.843 182.998 372.352L181.983 372.428L181.895 371.488C181.845 370.979 181.832 358.732 181.857 344.274C181.895 318.445 181.895 318 182.133 317.823C182.472 317.581 194.856 317.556 195.095 317.797Z" fill="white"/>
</g>
<defs>
<linearGradient id="paint0_linear_22_9" x1="6.00077" y1="456.001" x2="715.999" y2="3.99628" gradientUnits="userSpaceOnUse">
<stop stop-color="#82269E"/>
<stop offset="1" stop-color="#A95DC4"/>
</linearGradient>
<clipPath id="clip0_22_9">
<rect width="720" height="456" rx="25" fill="white"/>
</clipPath>
</defs>
</svg>
