<svg viewBox="0 0 1190 1498" fill="none" xmlns="http://www.w3.org/2000/svg">
<g id="section-card">
<g id="figure-shadow" filter="url(#filter0_f_282_268)">
<ellipse class="figure-shadow" cx="594.5" cy="1358" rx="317.5" ry="30" fill="#464646" fill-opacity="0.4"/>
</g>
<g id="nubank-verse" class="nubank-verse">
<g clip-path="url(#clip0_282_268)">
<rect id="Rectangle 1" width="720" height="456" transform="matrix(0.83147 0.55557 -0.293206 0.956049 214.702 105)" fill="url(#paint0_linear_282_268)"/>
<text id="Est&#195;&#161; com duvida?" transform="matrix(0.83147 0.55557 -0.293206 0.956049 426.232 441.021)" fill="white" xml:space="preserve" style="white-space: pre" font-family="Sora" font-size="12" font-weight="600" letter-spacing="0em"><tspan x="0" y="10.58">Est&#xe1; com duvida?</tspan></text>
<text id="Nosso app pode te ajudar." transform="matrix(0.83147 0.55557 -0.293206 0.956049 420.954 458.23)" fill="white" xml:space="preserve" style="white-space: pre" font-family="Sora" font-size="12" font-weight="600" letter-spacing="0em"><tspan x="0" y="10.58">Nosso app pode te ajudar.</tspan></text>
<text id="Fale com a gente:" transform="matrix(0.83147 0.55557 -0.293206 0.956049 413.331 483.088)" fill="white" xml:space="preserve" style="white-space: pre" font-family="Sora" font-size="12" font-weight="600" letter-spacing="0em"><tspan x="0" y="10.58">Fale com a gente:</tspan></text>
<text id="0800 591 2117" transform="matrix(0.83147 0.55557 -0.293206 0.956049 408.053 500.296)" fill="white" xml:space="preserve" style="white-space: pre" font-family="Sora" font-size="12" font-weight="600" letter-spacing="0em"><tspan x="0" y="10.58">0800 591 2117</tspan></text>
<text id="CVC" transform="matrix(0.83147 0.55557 -0.293206 0.956049 228.402 583.003)" fill="white" xml:space="preserve" style="white-space: pre" font-family="Sora" font-size="8" font-weight="600" letter-spacing="0em"><tspan x="0" y="7.22">CVC</tspan></text>
<text id="Validade" transform="matrix(0.83147 0.55557 -0.293206 0.956049 128.626 516.335)" fill="white" xml:space="preserve" style="white-space: pre" font-family="Sora" font-size="8" font-weight="600" letter-spacing="0em"><tspan x="0" y="7.22">Validade</tspan></text>
<g id="BANDEIRA">
<ellipse id="Ellipse 1" cx="33.651" cy="34" rx="33.651" ry="34" transform="matrix(0.83147 0.55557 -0.293206 0.956049 594.232 749.109)" fill="#3F5CB4"/>
<ellipse id="Ellipse 2" cx="33.651" cy="34" rx="33.651" ry="34" transform="matrix(0.83147 0.55557 -0.293206 0.956049 628.902 772.275)" fill="#467DD1"/>
<g id="Group 1">
<path id="Intersect" fill-rule="evenodd" clip-rule="evenodd" d="M621.729 837.488C630.038 835.867 637.026 829.43 640.199 819.083C643.372 808.737 642.038 796.74 637.38 786.454C629.07 788.075 622.083 794.512 618.91 804.859C615.737 815.205 617.071 827.202 621.729 837.488Z" fill="#5767BA"/>
</g>
</g>
<rect id="Rectangle 3" width="720" height="109" transform="matrix(0.83147 0.55557 -0.293206 0.956049 206.492 131.769)" fill="#CCC8CF"/>
<text id="platinum" transform="matrix(0.83147 0.55557 -0.293206 0.956049 200.461 282.103)" fill="white" xml:space="preserve" style="white-space: pre" font-family="Sora" font-size="30" font-weight="600" letter-spacing="0em"><tspan x="0" y="26.7">platinum</tspan></text>
<text id="cirrus" transform="matrix(0.83147 0.55557 -0.293206 0.956049 602.563 833.01)" fill="white" xml:space="preserve" style="white-space: pre" font-family="Sora" font-size="16" font-weight="600" letter-spacing="0em"><tspan x="0" y="14.44">cirrus</tspan></text>
<rect id="Rectangle 4" width="155" height="104" rx="50" transform="matrix(0.83147 0.55557 -0.293206 0.956049 178.27 328.329)" fill="#CCC8CF"/>
<circle id="Ellipse 7" cx="40.5" cy="40.5" r="40.5" transform="matrix(0.83147 0.55557 -0.293206 0.956049 221.607 369.957)" fill="#B6B6B6"/>
<circle id="Ellipse 6" cx="38" cy="38" r="38" transform="matrix(0.83147 0.55557 -0.293206 0.956049 191.919 352.424)" fill="#DDDDDD"/>
<text id="5032 9334 3763 9846" transform="matrix(0.83147 0.55557 -0.293206 0.956049 144.459 464.708)" fill="white" xml:space="preserve" style="white-space: pre" font-family="Sora" font-size="36" letter-spacing="0em"><tspan x="0" y="32.24">5032 9334 3763 9846</tspan></text>
<text id="02/17" transform="matrix(0.83147 0.55557 -0.293206 0.956049 167.215 537.511)" fill="white" xml:space="preserve" style="white-space: pre" font-family="Sora" font-size="16" letter-spacing="0em"><tspan x="0" y="14.44">02/17</tspan></text>
<text id="123" transform="matrix(0.83147 0.55557 -0.293206 0.956049 252.025 594.18)" fill="white" xml:space="preserve" style="white-space: pre" font-family="Sora" font-size="16" letter-spacing="0em"><tspan x="0" y="14.44">123</tspan></text>
<g id="message-square" clip-path="url(#clip1_282_268)">
<path id="Vector" d="M405.695 449.186C405.539 449.693 405.215 450.062 404.793 450.213C404.371 450.363 403.886 450.282 403.445 449.987L393.468 443.32L388.969 444.922L393.66 429.625C393.816 429.118 394.14 428.749 394.562 428.599C394.984 428.448 395.468 428.53 395.91 428.824L407.55 436.602C407.991 436.897 408.352 437.381 408.554 437.948C408.756 438.515 408.782 439.118 408.627 439.626L405.695 449.186Z" stroke="#D9D9D9" stroke-width="2" stroke-linecap="round" stroke-linejoin="round"/>
</g>
<g id="help-circle" clip-path="url(#clip2_282_268)">
<path id="Vector_2" d="M383.551 491.988C388.143 495.057 393.179 493.264 394.798 487.984C396.417 482.703 394.007 475.936 389.415 472.867C384.823 469.799 379.788 471.592 378.169 476.872C376.549 482.152 378.959 488.92 383.551 491.988Z" stroke="#D9D9D9" stroke-width="2" stroke-linecap="round" stroke-linejoin="round"/>
<path id="Vector_3" d="M384.943 477.943C385.334 477.435 385.886 477.154 386.499 477.15C387.112 477.146 387.747 477.42 388.293 477.922C388.838 478.424 389.259 479.123 389.479 479.895C389.699 480.667 389.706 481.461 389.497 482.138C388.911 484.05 386.123 483.34 386.123 483.34" stroke="#D9D9D9" stroke-width="2" stroke-linecap="round" stroke-linejoin="round"/>
<path id="Vector_4" d="M385.017 487.208L385.025 487.214" stroke="#D9D9D9" stroke-width="2" stroke-linecap="round" stroke-linejoin="round"/>
</g>
</g>
</g>
<g id="nubank" class="nubank">
<g clip-path="url(#clip3_282_268)">
<g id="Group 2">
<path id="Rectangle 1_2" d="M379 866.603L926.492 399L1146.8 798.25L599.307 1265.85L379 866.603Z" fill="url(#paint1_linear_282_268)"/>
<text id="ELIVELTON FERREIRA" transform="matrix(0.760406 -0.649448 0.48313 0.875549 709.31 1021.18)" fill="white" xml:space="preserve" style="white-space: pre" font-family="Sora" font-size="23" font-weight="600" letter-spacing="0em"><tspan x="0" y="20.32">ELIVELTON FERREIRA</tspan></text>
<g id="BANDEIRA_2">
<circle id="Ellipse 1_2" cx="46" cy="46" r="46" transform="matrix(0.760406 -0.649448 0.48313 0.875549 804.382 554.819)" fill="#E71924"/>
<circle id="Ellipse 2_2" cx="46" cy="46" r="46" transform="matrix(0.760406 -0.649448 0.48313 0.875549 847.725 517.801)" fill="#F99F19"/>
<g id="Group 1_2">
<path id="Intersect_2" fill-rule="evenodd" clip-rule="evenodd" d="M900.755 578.423C904.791 564.124 903.69 548.261 896.617 535.442C889.543 522.622 878.039 515.644 865.864 515.191C861.828 529.49 862.929 545.353 870.002 558.172C877.076 570.992 888.58 577.969 900.755 578.423Z" fill="#F26520"/>
</g>
</g>
<g id="CHIP">
<rect id="Rectangle 2" x="0.621768" y="0.11305" width="98" height="72" rx="9.5" transform="matrix(0.760406 -0.649448 0.48313 0.875549 513.291 952.074)" fill="#CCC8CF" stroke="black"/>
<path id="Vector 3" d="M557.75 971.572C557.291 963.014 554.918 958.671 546.879 951.872M599.173 909.785L577.121 928.619C578.93 937.388 581.302 941.143 587.025 946.568" stroke="black"/>
<path id="Vector 1" d="M525.069 971.144L547.297 952.159C541.366 938.706 547.17 925.361 550.236 922.743C552.45 919.601 563.309 917.299 568.516 922.148" stroke="black"/>
<path id="Vector 2" d="M536.078 990.081L557.75 971.572C571.456 984.515 577.32 986.453 584.656 980.796C591.173 975.731 591.431 967.632 587.406 946.243L609.077 927.734" stroke="black"/>
<circle id="Ellipse 5" cx="1.5" cy="1.5" r="1.5" transform="matrix(0.760406 -0.649448 0.48313 0.875549 553.562 927.487)" fill="black"/>
</g>
<g id="NFC">
<path id="Vector 4" d="M634.849 869.01C648.03 877.168 651.747 885.172 653.933 903.594M630.699 877.708C641.799 884.73 645.085 890.802 645.917 905.287" stroke="white" stroke-width="5" stroke-linecap="round" stroke-linejoin="round"/>
<path id="Vector 5" d="M627.308 885.756C635.34 891.605 637.474 896.177 638.42 905.893" stroke="white" stroke-width="5" stroke-linecap="round" stroke-linejoin="round"/>
<path id="Vector 6" d="M625.023 894.793C629.257 897.763 630.245 900.336 631.062 905.737" stroke="white" stroke-width="5" stroke-linecap="round" stroke-linejoin="round"/>
</g>
<g id="LOGO">
<path id="Vector_5" d="M602.287 1063.85C599.497 1066.96 598.18 1070.57 598.568 1074.07C598.792 1076.15 599.053 1076.88 600.52 1079.53L601.855 1081.93L600.871 1082.97C597.076 1086.99 594.736 1091.27 594.388 1094.85C594.246 1096.35 594.313 1097.21 594.674 1098.65L594.967 1099.84L605.917 1119.69C616.677 1139.19 616.867 1139.53 617.377 1139.95C618.098 1140.54 618.793 1140.73 619.694 1140.54L620.466 1140.39L624.727 1136.75L628.987 1133.11L629.379 1132.27C629.824 1131.35 629.944 1130.62 629.822 1129.61L629.746 1128.94L616.866 1105.52L603.983 1082.13L605.68 1080.68C608.606 1078.18 614.176 1074.14 615.369 1073.66C617.498 1072.79 619.82 1073.49 621.863 1075.64C623.366 1077.22 623.135 1076.83 634.317 1096.97L645.024 1116.22L645.479 1116.49C646.006 1116.8 646.925 1116.97 647.551 1116.86C647.967 1116.8 648.316 1116.52 652.109 1113.33C655.734 1110.26 656.252 1109.8 656.589 1109.27C657.035 1108.58 657.327 1107.33 657.261 1106.42L657.225 1105.8L649.715 1092.16C645.578 1084.67 639.968 1074.55 637.238 1069.68L632.271 1060.83L631.513 1060.17C625.992 1055.37 616.246 1054.94 608.434 1059.16C605.899 1060.54 603.925 1062.04 602.287 1063.85ZM607.451 1061.75C610.964 1059.55 614.74 1058.34 618.655 1058.14C620.311 1058.07 621.457 1058.13 623.231 1058.45C626.388 1059.01 628.796 1060.1 630.618 1061.75L631.267 1062.34L643.426 1084.2C651.628 1098.91 655.627 1106.18 655.695 1106.48C655.823 1107.05 655.59 1108.05 655.239 1108.48C655.086 1108.66 653.296 1110.22 651.254 1111.93C647.69 1114.92 647.531 1115.04 647.16 1115.03C646.95 1115.03 646.605 1114.97 646.408 1114.89C646.042 1114.76 646.024 1114.73 635.262 1095.38C623.45 1074.12 624.244 1075.46 622.403 1073.72C620.097 1071.55 617.341 1070.88 614.899 1071.92C613.667 1072.43 609.617 1075.33 606.292 1078.07L603.186 1080.63L602.825 1080.1C601.332 1078.01 600.634 1076.54 600.247 1074.69C599.96 1073.34 599.989 1071.61 600.319 1070.43C600.603 1069.37 601.427 1067.58 601.984 1066.81C603.2 1065.1 605.522 1062.96 607.451 1061.75ZM615.52 1106.59C628.262 1129.68 628.336 1129.82 628.348 1130.35C628.35 1130.66 628.238 1131.11 628.067 1131.44C627.805 1131.96 627.532 1132.22 623.929 1135.3C620.326 1138.38 620.027 1138.6 619.545 1138.72C619.239 1138.8 618.857 1138.76 618.626 1138.65C618.232 1138.45 618.183 1138.36 607.142 1118.3L596.06 1098.14L595.942 1097.34C595.36 1093.34 597.298 1089.23 602.324 1083.82C602.474 1083.66 602.608 1083.5 602.649 1083.44C602.687 1083.41 608.473 1093.82 615.52 1106.59Z" fill="white"/>
<path id="Vector_6" d="M642.34 1049.01C642.237 1049.23 642.119 1049.57 642.07 1049.76C641.876 1050.63 641.33 1049.59 654.3 1073.1L666.472 1095.15L667.345 1096.13C671.925 1101.25 678.037 1103.33 684.292 1101.88C688.039 1101.02 691.399 1099.23 696.036 1095.61C698.281 1093.86 699.711 1092.08 700.546 1090.01C702.111 1086.14 701.685 1082.21 699.206 1077.62L698.283 1075.92L698.544 1075.63C698.678 1075.47 699.217 1074.9 699.733 1074.36C704.068 1069.79 706.268 1064.93 705.883 1060.77L705.768 1059.5L694.03 1038.15L682.288 1016.82L681.799 1016.52C681.462 1016.31 681.133 1016.25 680.749 1016.32L680.198 1016.41L675.117 1020.75C671.772 1023.61 669.976 1025.21 669.838 1025.44C669.535 1025.96 669.384 1026.96 669.525 1027.49C669.603 1027.78 674.613 1036.99 682.81 1051.87L695.96 1075.78L694.816 1076.76C692.223 1078.97 687.445 1082.33 686.026 1082.94C682.882 1084.28 679.563 1083.45 677.076 1080.7C676.751 1080.34 676.081 1079.4 675.589 1078.61C675.087 1077.83 670.092 1068.9 664.497 1058.79C657.527 1046.18 654.26 1040.36 654.101 1040.25C653.977 1040.18 653.72 1040.07 653.532 1040.04C652.775 1039.83 652.737 1039.87 647.446 1044.38C643.176 1048.03 642.502 1048.64 642.34 1049.01ZM653.072 1041.87C653.32 1041.84 653.498 1042.16 663.798 1060.83C670.507 1072.98 674.51 1080.14 674.923 1080.73C677.854 1084.88 681.706 1086.32 686.026 1084.87C687.421 1084.4 690.933 1082.02 694.511 1079.13L696.979 1077.12L698.044 1079.07C698.964 1080.79 699.144 1081.19 699.456 1082.32C699.962 1084.18 700.036 1085.55 699.73 1087.29C699.416 1088.98 698.936 1090.09 697.868 1091.51C697.238 1092.38 696.987 1092.61 695.088 1094.15C693.945 1095.08 692.425 1096.21 691.712 1096.67C683.201 1102.19 675.353 1101.69 668.862 1095.24L667.881 1094.28L655.699 1072.28C644.276 1051.63 643.53 1050.25 643.609 1049.99C643.721 1049.63 652.687 1041.94 653.072 1041.87ZM680.888 1018.15C681.029 1018.17 683.734 1023 692.677 1039.21L704.284 1060.24L704.386 1061.14C704.764 1064.64 702.358 1069.43 698.047 1073.77L697.312 1074.49L696.791 1073.73C696.507 1073.31 690.581 1062.6 683.614 1049.92C671.164 1027.29 670.95 1026.9 671.045 1026.59C671.185 1026.15 680.591 1018.09 680.888 1018.15Z" fill="white"/>
</g>
</g>
</g>
</g>
</g>
<defs>
<filter id="filter0_f_282_268" x="210" y="1261" width="769" height="194" filterUnits="userSpaceOnUse" color-interpolation-filters="sRGB">
<feFlood flood-opacity="0" result="BackgroundImageFix"/>
<feBlend mode="normal" in="SourceGraphic" in2="BackgroundImageFix" result="shape"/>
<feGaussianBlur stdDeviation="33.5" result="effect1_foregroundBlur_282_268"/>
</filter>
<linearGradient id="paint0_linear_282_268" x1="6.00077" y1="456.001" x2="715.999" y2="3.99628" gradientUnits="userSpaceOnUse">
<stop stop-color="#82269E"/>
<stop offset="1" stop-color="#A95DC4"/>
</linearGradient>
<linearGradient id="paint1_linear_282_268" x1="603.871" y1="1261.96" x2="996.909" y2="439.27" gradientUnits="userSpaceOnUse">
<stop stop-color="#82269E"/>
<stop offset="1" stop-color="#A95DC4"/>
</linearGradient>
<clipPath id="clip0_282_268">
<rect width="720" height="456" rx="25" transform="matrix(0.83147 0.55557 -0.293206 0.956049 214.702 105)" fill="white"/>
</clipPath>
<clipPath id="clip1_282_268">
<rect width="24" height="24" fill="white" transform="matrix(0.83147 0.55557 -0.293206 0.956049 392.632 423.178)"/>
</clipPath>
<clipPath id="clip2_282_268">
<rect width="24" height="24" fill="white" transform="matrix(0.83147 0.55557 -0.293206 0.956049 380.024 464.288)"/>
</clipPath>
<clipPath id="clip3_282_268">
<rect width="720" height="456" rx="25" transform="matrix(0.760406 -0.649448 0.48313 0.875549 379 866.603)" fill="white"/>
</clipPath>
</defs>
</svg>
